<svg width="228" height="279" viewBox="0 0 228 279" fill="none" xmlns="http://www.w3.org/2000/svg">
<path d="M119.79 212.515C120.654 212.877 121.557 214.119 122.089 214.898C122.66 215.733 122.906 217.133 122.682 218.115L122.623 218.349C122.345 219.512 121.783 220.367 120.794 221.078C118.409 222.79 115.634 222.744 112.88 222.364C112.377 222.274 111.881 222.141 111.43 221.892C110.754 221.518 109.851 220.434 109.683 219.662C109.527 218.944 109.784 218.077 110.146 217.459C112.037 214.219 116.406 213.39 119.79 212.515Z" fill="white"/>
<mask id="path-2-outside-1_240_969" maskUnits="userSpaceOnUse" x="21.1284" y="174.248" width="27.6551" height="22.6633" fill="black">
<rect fill="white" x="21.1284" y="174.248" width="27.6551" height="22.6633"/>
<path d="M31.9558 179.602C33.5616 179.658 35.0562 180.186 36.5373 180.759C38.7261 181.605 42.2798 183.076 43.2135 185.38C43.4504 185.965 43.5212 186.678 43.2261 187.255C42.0646 189.528 39.8522 190.463 37.5686 191.222C34.7624 191.696 32.1695 190.698 29.8735 189.139C28.6156 188.286 26.8638 186.821 26.6014 185.244C26.3871 183.956 26.8007 183.162 27.5381 182.152C28.7067 180.55 30.0539 179.905 31.9558 179.602Z"/>
</mask>
<path d="M31.9558 179.602C33.5616 179.658 35.0562 180.186 36.5373 180.759C38.7261 181.605 42.2798 183.076 43.2135 185.38C43.4504 185.965 43.5212 186.678 43.2261 187.255C42.0646 189.528 39.8522 190.463 37.5686 191.222C34.7624 191.696 32.1695 190.698 29.8735 189.139C28.6156 188.286 26.8638 186.821 26.6014 185.244C26.3871 183.956 26.8007 183.162 27.5381 182.152C28.7067 180.55 30.0539 179.905 31.9558 179.602Z" fill="white"/>
<path d="M31.9558 179.602C33.5616 179.658 35.0562 180.186 36.5373 180.759C38.7261 181.605 42.2798 183.076 43.2135 185.38C43.4504 185.965 43.5212 186.678 43.2261 187.255C42.0646 189.528 39.8522 190.463 37.5686 191.222C34.7624 191.696 32.1695 190.698 29.8735 189.139C28.6156 188.286 26.8638 186.821 26.6014 185.244C26.3871 183.956 26.8007 183.162 27.5381 182.152C28.7067 180.55 30.0539 179.905 31.9558 179.602Z" stroke="black" stroke-width="6.50952" mask="url(#path-2-outside-1_240_969)"/>
<mask id="path-3-outside-2_240_969" maskUnits="userSpaceOnUse" x="41.3852" y="231.948" width="40.0789" height="34.2551" fill="black">
<rect fill="white" x="41.3852" y="231.948" width="40.0789" height="34.2551"/>
<path d="M67.9918 239.531C68.7207 239.548 69.531 239.76 70.2684 239.842C70.994 241.239 71.1753 243.394 71.5394 244.959L73.3572 251.786C71.5264 252.599 69.4088 253.064 67.4624 253.518C62.5463 254.662 57.5425 255.326 52.5114 255.702L46.2044 255.851C46.6324 251.796 48.5708 248.089 51.5946 245.336C56.2157 241.128 61.7671 239.204 67.9918 239.531Z"/>
</mask>
<path d="M67.9918 239.531C68.7207 239.548 69.531 239.76 70.2684 239.842C70.994 241.239 71.1753 243.394 71.5394 244.959L73.3572 251.786C71.5264 252.599 69.4088 253.064 67.4624 253.518C62.5463 254.662 57.5425 255.326 52.5114 255.702L46.2044 255.851C46.6324 251.796 48.5708 248.089 51.5946 245.336C56.2157 241.128 61.7671 239.204 67.9918 239.531Z" fill="#E4DBDB"/>
<path d="M67.9918 239.531C68.7207 239.548 69.531 239.76 70.2684 239.842C70.994 241.239 71.1753 243.394 71.5394 244.959L73.3572 251.786C71.5264 252.599 69.4088 253.064 67.4624 253.518C62.5463 254.662 57.5425 255.326 52.5114 255.702L46.2044 255.851C46.6324 251.796 48.5708 248.089 51.5946 245.336C56.2157 241.128 61.7671 239.204 67.9918 239.531Z" stroke="black" stroke-width="7.81143" mask="url(#path-3-outside-2_240_969)"/>
<path d="M150.26 108.822C150.683 109.37 150.507 110.794 150.469 111.452C150.189 116.383 148.204 121.94 144.441 125.288C141.895 127.553 138.537 128.813 135.117 128.582C130.311 128.257 126.536 125.747 123.432 122.225C121.585 119.664 120.173 116.923 119.131 113.94C120.701 114.381 122.464 114.476 124.09 114.582C130.848 115.023 137.487 114.011 143.85 111.688C146.068 110.879 148.094 109.734 150.26 108.822Z" fill="#E4DBDB"/>
<mask id="path-5-outside-3_240_969" maskUnits="userSpaceOnUse" x="45.7889" y="183.203" width="89.1037" height="45.8411" fill="black">
<rect fill="white" x="45.7889" y="183.203" width="89.1037" height="45.8411"/>
<path d="M96.415 194.437C97.371 194.457 99.4587 196.076 100.358 196.618C103.476 198.499 106.651 200.242 110.009 201.658C116.878 204.553 123.725 206.382 131.105 207.419C127.772 208.448 124.254 209.03 120.842 209.745C117.27 210.494 113.729 211.043 110.534 212.922C109.963 213.258 109.282 213.601 108.849 214.113C107.87 215.271 106.793 216.275 105.744 217.362C104.585 218.564 103.601 219.771 102.23 220.757C99.7123 219.704 97.2492 217.956 94.8596 216.603L58.1335 195.302C60.5894 194.578 63.0628 194.421 65.6035 194.269C71.0155 193.945 76.3808 194.267 81.7931 194.297C86.6454 194.323 91.5784 194.114 96.415 194.437Z"/>
</mask>
<path d="M96.415 194.437C97.371 194.457 99.4587 196.076 100.358 196.618C103.476 198.499 106.651 200.242 110.009 201.658C116.878 204.553 123.725 206.382 131.105 207.419C127.772 208.448 124.254 209.03 120.842 209.745C117.27 210.494 113.729 211.043 110.534 212.922C109.963 213.258 109.282 213.601 108.849 214.113C107.87 215.271 106.793 216.275 105.744 217.362C104.585 218.564 103.601 219.771 102.23 220.757C99.7123 219.704 97.2492 217.956 94.8596 216.603L58.1335 195.302C60.5894 194.578 63.0628 194.421 65.6035 194.269C71.0155 193.945 76.3808 194.267 81.7931 194.297C86.6454 194.323 91.5784 194.114 96.415 194.437Z" fill="#D6CCC2"/>
<path d="M96.415 194.437C97.371 194.457 99.4587 196.076 100.358 196.618C103.476 198.499 106.651 200.242 110.009 201.658C116.878 204.553 123.725 206.382 131.105 207.419C127.772 208.448 124.254 209.03 120.842 209.745C117.27 210.494 113.729 211.043 110.534 212.922C109.963 213.258 109.282 213.601 108.849 214.113C107.87 215.271 106.793 216.275 105.744 217.362C104.585 218.564 103.601 219.771 102.23 220.757C99.7123 219.704 97.2492 217.956 94.8596 216.603L58.1335 195.302C60.5894 194.578 63.0628 194.421 65.6035 194.269C71.0155 193.945 76.3808 194.267 81.7931 194.297C86.6454 194.323 91.5784 194.114 96.415 194.437Z" stroke="black" stroke-width="6.50952" mask="url(#path-5-outside-3_240_969)"/>
<mask id="path-6-outside-4_240_969" maskUnits="userSpaceOnUse" x="-1.81847" y="175.409" width="117.018" height="76.2508" fill="black">
<rect fill="white" x="-1.81847" y="175.409" width="117.018" height="76.2508"/>
<path d="M23.633 183.01L23.8893 183.169L23.8003 183.798C23.5796 185.617 24.0934 187.127 25.2167 188.551C27.0587 190.886 30.6764 193.691 33.7247 193.939C33.9865 193.96 34.2339 193.996 34.4935 194.043C37.0767 194.507 39.697 193.633 41.8854 192.322C43.136 192.633 44.4129 193.052 45.6802 193.265C46.9673 193.481 48.6669 193.373 49.8434 193.808C51.3207 194.354 52.9948 195.643 54.3845 196.459L64.2319 202.156L102.067 224.065C100.124 225.133 97.6819 225.81 95.5998 226.624L80.4225 232.479C78.9929 233.006 71.1698 235.604 70.6163 236.48C70.1731 237.182 69.9084 236.974 69.1816 236.903C64.3342 236.429 59.933 237.163 55.5188 239.282L36.9023 230.113L30.2032 226.749C26.9891 225.307 23.6146 224.361 20.3901 222.987C14.9649 220.674 10.9699 215.639 8.85464 210.257C6.90454 205.295 7.05761 199.572 9.22783 194.696C11.9285 188.627 17.6683 185.222 23.633 183.01Z"/>
</mask>
<path d="M23.633 183.01L23.8893 183.169L23.8003 183.798C23.5796 185.617 24.0934 187.127 25.2167 188.551C27.0587 190.886 30.6764 193.691 33.7247 193.939C33.9865 193.96 34.2339 193.996 34.4935 194.043C37.0767 194.507 39.697 193.633 41.8854 192.322C43.136 192.633 44.4129 193.052 45.6802 193.265C46.9673 193.481 48.6669 193.373 49.8434 193.808C51.3207 194.354 52.9948 195.643 54.3845 196.459L64.2319 202.156L102.067 224.065C100.124 225.133 97.6819 225.81 95.5998 226.624L80.4225 232.479C78.9929 233.006 71.1698 235.604 70.6163 236.48C70.1731 237.182 69.9084 236.974 69.1816 236.903C64.3342 236.429 59.933 237.163 55.5188 239.282L36.9023 230.113L30.2032 226.749C26.9891 225.307 23.6146 224.361 20.3901 222.987C14.9649 220.674 10.9699 215.639 8.85464 210.257C6.90454 205.295 7.05761 199.572 9.22783 194.696C11.9285 188.627 17.6683 185.222 23.633 183.01Z" fill="#D6CCC2"/>
<path d="M23.633 183.01L23.8893 183.169L23.8003 183.798C23.5796 185.617 24.0934 187.127 25.2167 188.551C27.0587 190.886 30.6764 193.691 33.7247 193.939C33.9865 193.96 34.2339 193.996 34.4935 194.043C37.0767 194.507 39.697 193.633 41.8854 192.322C43.136 192.633 44.4129 193.052 45.6802 193.265C46.9673 193.481 48.6669 193.373 49.8434 193.808C51.3207 194.354 52.9948 195.643 54.3845 196.459L64.2319 202.156L102.067 224.065C100.124 225.133 97.6819 225.81 95.5998 226.624L80.4225 232.479C78.9929 233.006 71.1698 235.604 70.6163 236.48C70.1731 237.182 69.9084 236.974 69.1816 236.903C64.3342 236.429 59.933 237.163 55.5188 239.282L36.9023 230.113L30.2032 226.749C26.9891 225.307 23.6146 224.361 20.3901 222.987C14.9649 220.674 10.9699 215.639 8.85464 210.257C6.90454 205.295 7.05761 199.572 9.22783 194.696C11.9285 188.627 17.6683 185.222 23.633 183.01Z" stroke="black" stroke-width="7.81143" mask="url(#path-6-outside-4_240_969)"/>
<mask id="path-7-outside-5_240_969" maskUnits="userSpaceOnUse" x="63.9209" y="189.325" width="140.098" height="94.3397" fill="black">
<rect fill="white" x="63.9209" y="189.325" width="140.098" height="94.3397"/>
<path d="M172.666 208.71L179.424 209.751L189.326 232.561C192.507 240.693 194.442 249.104 190.735 257.457C187.828 264.006 182.065 269.668 175.34 272.24C168.839 274.727 161.934 275.048 155.265 272.995C149.082 271.09 143.527 267.753 137.701 265.031L129.465 261.5L118.241 256.457L127.73 255.056L135.483 254.048C136.633 253.902 138.325 253.87 139.363 253.386C139.734 253.213 139.77 253.048 139.862 252.662C140.001 252.076 139.795 251.642 139.489 251.158C138.945 250.822 138.117 250.916 137.505 251.021L126.677 252.357L77.1282 255.464C76.5916 254.036 76.3713 252.511 75.9845 251.038L72.9175 238.465C74.5291 237.559 76.5475 236.98 78.2853 236.318L88.5476 232.397L101.839 227.267L109.929 224.089C113.5 225.777 117.918 225.673 121.579 224.241C122.42 223.912 123.518 223.031 124.342 222.85C124.835 222.742 126.051 223.129 126.637 223.152C129.009 223.248 131.511 222.906 133.877 222.68C141 222 147.86 220.908 154.73 218.838C158.16 217.805 161.584 216.621 164.728 214.882C167.709 213.233 170.175 210.998 172.666 208.71Z"/>
</mask>
<path d="M172.666 208.71L179.424 209.751L189.326 232.561C192.507 240.693 194.442 249.104 190.735 257.457C187.828 264.006 182.065 269.668 175.34 272.24C168.839 274.727 161.934 275.048 155.265 272.995C149.082 271.09 143.527 267.753 137.701 265.031L129.465 261.5L118.241 256.457L127.73 255.056L135.483 254.048C136.633 253.902 138.325 253.87 139.363 253.386C139.734 253.213 139.77 253.048 139.862 252.662C140.001 252.076 139.795 251.642 139.489 251.158C138.945 250.822 138.117 250.916 137.505 251.021L126.677 252.357L77.1282 255.464C76.5916 254.036 76.3713 252.511 75.9845 251.038L72.9175 238.465C74.5291 237.559 76.5475 236.98 78.2853 236.318L88.5476 232.397L101.839 227.267L109.929 224.089C113.5 225.777 117.918 225.673 121.579 224.241C122.42 223.912 123.518 223.031 124.342 222.85C124.835 222.742 126.051 223.129 126.637 223.152C129.009 223.248 131.511 222.906 133.877 222.68C141 222 147.86 220.908 154.73 218.838C158.16 217.805 161.584 216.621 164.728 214.882C167.709 213.233 170.175 210.998 172.666 208.71Z" fill="#D6CCC2"/>
<path d="M172.666 208.71L179.424 209.751L189.326 232.561C192.507 240.693 194.442 249.104 190.735 257.457C187.828 264.006 182.065 269.668 175.34 272.24C168.839 274.727 161.934 275.048 155.265 272.995C149.082 271.09 143.527 267.753 137.701 265.031L129.465 261.5L118.241 256.457L127.73 255.056L135.483 254.048C136.633 253.902 138.325 253.87 139.363 253.386C139.734 253.213 139.77 253.048 139.862 252.662C140.001 252.076 139.795 251.642 139.489 251.158C138.945 250.822 138.117 250.916 137.505 251.021L126.677 252.357L77.1282 255.464C76.5916 254.036 76.3713 252.511 75.9845 251.038L72.9175 238.465C74.5291 237.559 76.5475 236.98 78.2853 236.318L88.5476 232.397L101.839 227.267L109.929 224.089C113.5 225.777 117.918 225.673 121.579 224.241C122.42 223.912 123.518 223.031 124.342 222.85C124.835 222.742 126.051 223.129 126.637 223.152C129.009 223.248 131.511 222.906 133.877 222.68C141 222 147.86 220.908 154.73 218.838C158.16 217.805 161.584 216.621 164.728 214.882C167.709 213.233 170.175 210.998 172.666 208.71Z" stroke="black" stroke-width="7.81143" mask="url(#path-7-outside-5_240_969)"/>
<path d="M153.173 111.39C157.502 113.215 161.509 115.483 165.498 117.948C169.521 120.433 173.452 123.05 176.871 126.344C182.264 131.54 185.9 137.905 187.502 145.239C187.825 146.717 188.205 148.512 188.193 150.021C188.18 151.631 188.27 153.246 188.158 154.856C187.984 157.349 187.412 159.932 187.029 162.405C185.643 171.353 183.675 179.839 180.571 188.36C178.084 195.19 175.035 201.994 169.968 207.334C167.598 209.832 164.89 211.84 161.819 213.408C158.752 214.974 155.226 215.997 151.897 216.848C143.148 219.084 134.422 220.039 125.405 220.268C125.685 219.163 126.006 218.044 125.933 216.893C125.829 215.261 124.911 213.476 123.703 212.406L123.507 212.233C132.261 210.294 140.947 208.483 147.673 202.046C157.009 193.113 161.619 179.896 164.131 167.509C164.583 165.281 165.351 162.959 165.391 160.675C165.396 160.378 165.383 160.213 165.479 159.927L165.555 159.72C165.674 159.165 165.604 158.311 165.183 157.901C164.833 157.559 164.362 157.582 163.913 157.595C163.596 157.766 163.313 157.892 163.109 158.205C162.803 158.675 162.787 159.523 162.706 160.074C162.501 161.47 162.339 162.892 162.051 164.274C160.132 173.481 157.66 182.553 152.891 190.756C150.074 195.603 146.504 199.73 141.92 202.976C140.952 203.661 139.669 204.59 138.5 204.859C137.08 205.184 134.964 204.755 133.501 204.632C122.452 203.7 112.233 200.337 102.67 194.725L97.4485 191.353C97.1457 191.18 97.2685 190.984 97.2779 190.649L98.2477 145.232L98.2821 140.483C98.3134 139.359 98.5411 137.964 98.1979 136.898C97.8618 136.547 97.6217 136.391 97.1344 136.303C96.5257 136.193 96.2167 136.383 95.7361 136.731C95.6053 136.992 95.4106 137.318 95.3519 137.602C95.235 138.168 95.3343 139.011 95.3251 139.602L95.3089 145.021L95.2272 154.456L95.1265 164.663C95.0713 165.709 93.9495 167.352 93.4784 168.304C90.5779 174.163 87.5859 179.992 82.5888 184.361C76.8031 189.42 69.232 192.469 61.4861 191.882C55.9564 191.463 50.5354 191.48 45.0484 190.472C45.7491 188.06 46.4084 186.719 45.5514 184.122C44.7349 181.649 41.931 180.284 39.7697 179.178C44.1027 178.663 48.5932 177.385 52.6976 175.932C59.7254 173.445 66.2123 169.298 71.3571 163.903C79.2019 155.676 84.3328 144.589 88.6322 134.2C90.1986 130.415 91.1458 126.401 92.9442 122.702C95.0033 118.467 98.2435 114.389 102.284 111.886C104.045 110.795 105.97 110.072 107.921 109.403C109.699 110.135 111.308 111.22 113.124 111.95L115.224 112.725C115.349 112.767 115.875 112.906 115.947 112.967C115.996 113.008 116.096 113.503 116.126 113.609C116.395 114.564 116.664 115.517 117.006 116.449C117.845 118.739 118.888 120.961 120.324 122.938C123.37 127.132 128.134 130.277 133.301 131.051C137.34 131.657 141.547 131.061 144.889 128.581C150.625 124.326 152.183 118.077 153.173 111.39Z" fill="#DCB495" stroke="black" stroke-width="4.55667"/>
<mask id="path-9-inside-6_240_969" fill="white">
<path d="M159.259 126.69C152.378 131.268 144.687 133.071 136.185 132.096C129.088 131.283 122.844 128.571 117.453 123.956C117.348 123.864 117.231 123.849 117.101 123.912C116.587 124.169 116.156 124.519 115.803 124.957C114.964 125.056 114.158 125.171 113.368 125.437C106.027 127.936 98.7156 128.06 91.4248 125.808C75.7786 120.98 66.7715 107.042 69.2179 92.5157C69.2421 92.3718 69.2223 92.2234 69.1605 92.0861C69.0988 91.9488 68.9974 91.8278 68.8672 91.736C60.0102 85.5193 55.1597 76.7227 55.4707 66.5554C55.5392 64.4648 55.8836 62.3939 56.5087 60.3394C59.1414 51.6765 65.3192 45.4355 74.2895 41.8676C74.781 41.6706 75.0525 41.1283 75.1087 40.6596C76.2239 31.2321 82.4785 23.1565 91.7061 18.9964C101.205 14.7159 112.17 15.1163 121.773 19.7474C121.93 19.8231 122.103 19.8622 122.277 19.8612C122.452 19.8602 122.622 19.819 122.77 19.7415C132.697 14.6012 144.984 14.9036 154.958 20.214C160.673 23.2526 165.132 27.6812 168.328 33.4906C168.559 33.909 169.139 34.1079 169.61 34.2101C177.954 36.0398 184.48 39.8273 189.194 45.5655C196.299 54.2162 197.915 64.7671 193.581 74.4192C193.092 75.5002 192.477 76.5096 191.972 77.5762C191.911 77.7098 191.902 77.8478 191.947 77.9861C192.509 79.6746 193.136 81.3695 193.426 83.0948C194.781 91.2007 193.034 98.3236 188.183 104.456C183.637 110.21 177.407 113.915 169.495 115.577C169.151 115.65 168.901 115.833 168.74 116.122C166.428 120.311 163.265 123.831 159.259 126.69Z"/>
</mask>
<path d="M159.259 126.69C152.378 131.268 144.687 133.071 136.185 132.096C129.088 131.283 122.844 128.571 117.453 123.956C117.348 123.864 117.231 123.849 117.101 123.912C116.587 124.169 116.156 124.519 115.803 124.957C114.964 125.056 114.158 125.171 113.368 125.437C106.027 127.936 98.7156 128.06 91.4248 125.808C75.7786 120.98 66.7715 107.042 69.2179 92.5157C69.2421 92.3718 69.2223 92.2234 69.1605 92.0861C69.0988 91.9488 68.9974 91.8278 68.8672 91.736C60.0102 85.5193 55.1597 76.7227 55.4707 66.5554C55.5392 64.4648 55.8836 62.3939 56.5087 60.3394C59.1414 51.6765 65.3192 45.4355 74.2895 41.8676C74.781 41.6706 75.0525 41.1283 75.1087 40.6596C76.2239 31.2321 82.4785 23.1565 91.7061 18.9964C101.205 14.7159 112.17 15.1163 121.773 19.7474C121.93 19.8231 122.103 19.8622 122.277 19.8612C122.452 19.8602 122.622 19.819 122.77 19.7415C132.697 14.6012 144.984 14.9036 154.958 20.214C160.673 23.2526 165.132 27.6812 168.328 33.4906C168.559 33.909 169.139 34.1079 169.61 34.2101C177.954 36.0398 184.48 39.8273 189.194 45.5655C196.299 54.2162 197.915 64.7671 193.581 74.4192C193.092 75.5002 192.477 76.5096 191.972 77.5762C191.911 77.7098 191.902 77.8478 191.947 77.9861C192.509 79.6746 193.136 81.3695 193.426 83.0948C194.781 91.2007 193.034 98.3236 188.183 104.456C183.637 110.21 177.407 113.915 169.495 115.577C169.151 115.65 168.901 115.833 168.74 116.122C166.428 120.311 163.265 123.831 159.259 126.69Z" fill="white" stroke="black" stroke-width="10.4152" mask="url(#path-9-inside-6_240_969)"/>
<path d="M123.823 74.626C126.52 70.4388 123.364 68.2184 119.679 67.6487C119.328 67.5934 119.316 67.4996 119.644 67.3637C125.721 64.8734 132.011 69.9423 131.462 76.2368C131.252 78.6611 130.125 80.7074 128.085 82.38C127.571 82.8003 127.469 82.7154 127.78 82.129C129.741 78.4343 129.684 74.0156 123.986 74.8739C123.955 74.8791 123.924 74.8751 123.895 74.8626C123.866 74.85 123.841 74.8294 123.824 74.8032C123.807 74.7769 123.797 74.7462 123.797 74.7148C123.797 74.6834 123.806 74.6525 123.823 74.626Z" fill="white"/>
<path d="M109.152 80.6593C111.097 76.8436 110.999 72.7055 105.286 73.4235C105.263 73.426 105.239 73.4219 105.217 73.4117C105.196 73.4015 105.178 73.3857 105.166 73.366C105.153 73.3464 105.146 73.3237 105.147 73.3008C105.147 73.2778 105.153 73.2554 105.166 73.2362C107.727 69.1384 104.884 66.7531 100.965 66.1885C100.665 66.1451 100.655 66.0669 100.937 65.9544C104.362 64.5732 108.267 65.545 110.636 68.2385C114.021 72.0912 113.443 77.6692 109.443 80.8968C108.974 81.2744 108.88 81.1944 109.152 80.6593Z" fill="white"/>
<path d="M119.529 73.1136C119.818 73.1592 120.089 72.962 120.134 72.6732C120.18 72.3844 119.983 72.1134 119.694 72.0678C119.405 72.0223 119.134 72.2195 119.088 72.5082C119.043 72.797 119.24 73.0681 119.529 73.1136Z" fill="white"/>
<path d="M100.865 71.6976C101.162 71.7445 101.441 71.5417 101.488 71.2446C101.535 70.9476 101.332 70.6688 101.035 70.6219C100.738 70.5751 100.459 70.7779 100.412 71.0749C100.365 71.372 100.568 71.6508 100.865 71.6976Z" fill="white"/>
<path d="M118.807 77.8119C119.096 77.8574 119.367 77.6602 119.413 77.3715C119.458 77.0827 119.261 76.8116 118.972 76.7661C118.683 76.7205 118.412 76.9177 118.367 77.2065C118.321 77.4953 118.518 77.7663 118.807 77.8119Z" fill="white"/>
<path d="M123.636 79.5487C123.928 79.5949 124.203 79.3949 124.25 79.102C124.296 78.8091 124.096 78.5342 123.803 78.488C123.51 78.4418 123.235 78.6417 123.189 78.9347C123.143 79.2276 123.343 79.5025 123.636 79.5487Z" fill="white"/>
<path d="M100.135 76.3739C100.428 76.4201 100.703 76.2201 100.749 75.9272C100.795 75.6343 100.595 75.3594 100.303 75.3132C100.01 75.2669 99.7348 75.4669 99.6886 75.7599C99.6424 76.0528 99.8423 76.3277 100.135 76.3739Z" fill="white"/>
<path d="M104.969 78.1061C105.259 78.1519 105.532 77.9533 105.578 77.6625C105.624 77.3716 105.426 77.0987 105.135 77.0528C104.844 77.0069 104.571 77.2055 104.525 77.4964C104.479 77.7872 104.678 78.0602 104.969 78.1061Z" fill="white"/>
<path d="M71.5673 87.6386C48.5789 65.4286 66.367 50.6282 78.1347 46.0043C55.8343 97.9745 127.243 111.029 165.735 111.06C150.049 136.132 126.616 126.142 116.86 118.013C81.7212 131.054 72.0237 103.197 71.5673 87.6386Z" fill="#E4DBDB"/>
</svg>
