<svg width="232" height="231" viewBox="0 0 232 231" fill="none" xmlns="http://www.w3.org/2000/svg">
<mask id="path-1-inside-1_240_937" fill="white">
<path d="M30.957 146.07L28.251 145.745C28.1065 145.743 27.9925 145.769 27.8493 145.728C23.063 144.38 19.1023 141.595 16.7621 137.122C14.8182 133.407 14.3564 128.707 15.6223 124.71C17.0339 120.253 19.8875 116.787 24.0475 114.644C27.6152 112.806 32.2516 112.14 36.1006 113.375C37.7467 113.904 39.394 114.502 40.2132 116.126L40.6751 117.098C41.968 119.242 43.7955 120.684 45.9814 121.831L45.9906 121.935C46.0309 122.448 45.9711 122.942 45.9561 123.453L45.9136 126.383C45.9231 129.879 46.192 133.456 46.8575 136.889C46.959 137.412 47.0063 138.33 47.295 138.763L47.4668 138.843C46.4328 138.981 45.3479 139.079 44.4241 139.603C43.536 140.105 42.9082 141.177 42.1349 141.864C39.4236 144.274 36.1228 145.713 32.5037 146.042C31.9924 146.089 31.4705 146.058 30.957 146.07Z"/>
</mask>
<path d="M30.957 146.07L28.251 145.745C28.1065 145.743 27.9925 145.769 27.8493 145.728C23.063 144.38 19.1023 141.595 16.7621 137.122C14.8182 133.407 14.3564 128.707 15.6223 124.71C17.0339 120.253 19.8875 116.787 24.0475 114.644C27.6152 112.806 32.2516 112.14 36.1006 113.375C37.7467 113.904 39.394 114.502 40.2132 116.126L40.6751 117.098C41.968 119.242 43.7955 120.684 45.9814 121.831L45.9906 121.935C46.0309 122.448 45.9711 122.942 45.9561 123.453L45.9136 126.383C45.9231 129.879 46.192 133.456 46.8575 136.889C46.959 137.412 47.0063 138.33 47.295 138.763L47.4668 138.843C46.4328 138.981 45.3479 139.079 44.4241 139.603C43.536 140.105 42.9082 141.177 42.1349 141.864C39.4236 144.274 36.1228 145.713 32.5037 146.042C31.9924 146.089 31.4705 146.058 30.957 146.07Z" fill="#E4DBDB" stroke="black" stroke-width="6" mask="url(#path-1-inside-1_240_937)"/>
<mask id="path-2-inside-2_240_937" fill="white">
<path d="M40.6751 117.099C41.968 119.242 43.7955 120.684 45.9814 121.831L45.9906 121.935C46.0309 122.448 45.9711 122.943 45.9561 123.454L45.9136 126.383C45.9231 129.879 46.192 133.457 46.8575 136.889C46.959 137.412 47.0063 138.33 47.295 138.764L47.4668 138.843C46.4328 138.981 45.3479 139.08 44.4241 139.603C43.536 140.106 42.9082 141.177 42.1349 141.864C39.4236 144.275 36.1228 145.714 32.5037 146.043C31.9924 146.089 31.4705 146.059 30.957 146.07L30.7466 145.12C30.5545 144.035 30.5759 142.97 30.5883 141.874C30.6632 135.277 33.0731 128.634 36.4563 123.037C37.7076 120.966 39.2747 119.071 40.6751 117.099Z"/>
</mask>
<path d="M40.6751 117.099C41.968 119.242 43.7955 120.684 45.9814 121.831L45.9906 121.935C46.0309 122.448 45.9711 122.943 45.9561 123.454L45.9136 126.383C45.9231 129.879 46.192 133.457 46.8575 136.889C46.959 137.412 47.0063 138.33 47.295 138.764L47.4668 138.843C46.4328 138.981 45.3479 139.08 44.4241 139.603C43.536 140.106 42.9082 141.177 42.1349 141.864C39.4236 144.275 36.1228 145.714 32.5037 146.043C31.9924 146.089 31.4705 146.059 30.957 146.07L30.7466 145.12C30.5545 144.035 30.5759 142.97 30.5883 141.874C30.6632 135.277 33.0731 128.634 36.4563 123.037C37.7076 120.966 39.2747 119.071 40.6751 117.099Z" fill="#DCB495" stroke="black" stroke-width="6" mask="url(#path-2-inside-2_240_937)"/>
<mask id="path-3-inside-3_240_937" fill="white">
<path d="M117.368 45.262C119.708 47.2011 121.72 49.9153 122.61 52.8456C122.983 54.0761 123.164 55.5506 123.288 56.8311C123.586 59.9106 122.62 63.4405 120.616 65.8081C120.138 66.3732 119.581 66.8907 118.941 67.2665C118.172 67.7177 117.31 67.9814 116.532 68.4094C115.547 68.9507 114.818 69.7957 114.411 70.8448C114.174 71.4567 114.127 72.0417 114.029 72.6812L113.796 72.5268C113.749 72.2872 113.72 72.0822 113.73 71.838L113.735 71.7389C113.772 70.7035 114.119 69.7144 114.405 68.7266C114.88 67.084 115.422 65.4604 115.774 63.785C116.512 60.2791 117.106 56.6807 117.306 53.1009L117.368 45.262Z"/>
</mask>
<path d="M117.368 45.262C119.708 47.2011 121.72 49.9153 122.61 52.8456C122.983 54.0761 123.164 55.5506 123.288 56.8311C123.586 59.9106 122.62 63.4405 120.616 65.8081C120.138 66.3732 119.581 66.8907 118.941 67.2665C118.172 67.7177 117.31 67.9814 116.532 68.4094C115.547 68.9507 114.818 69.7957 114.411 70.8448C114.174 71.4567 114.127 72.0417 114.029 72.6812L113.796 72.5268C113.749 72.2872 113.72 72.0822 113.73 71.838L113.735 71.7389C113.772 70.7035 114.119 69.7144 114.405 68.7266C114.88 67.084 115.422 65.4604 115.774 63.785C116.512 60.2791 117.106 56.6807 117.306 53.1009L117.368 45.262Z" fill="#DCB495" stroke="black" stroke-width="6" mask="url(#path-3-inside-3_240_937)"/>
<mask id="path-4-inside-4_240_937" fill="white">
<path d="M108.345 190.937C108.96 191.253 109.518 191.69 110.067 192.108C112.658 194.08 114.507 196.734 115.495 199.831C116.704 203.618 116.281 208.297 114.444 211.805C112.581 215.359 109.147 218.136 105.32 219.316C101.602 220.46 97.0798 220.273 93.6044 218.432L92.9621 218.078L93.2816 214.005C94.3362 213.928 95.4137 213.913 96.4485 213.67C100.569 212.705 104.196 210.111 106.412 206.493C108.886 202.455 109.268 197.792 108.669 193.197C108.57 192.438 108.523 191.684 108.345 190.937Z"/>
</mask>
<path d="M108.345 190.937C108.96 191.253 109.518 191.69 110.067 192.108C112.658 194.08 114.507 196.734 115.495 199.831C116.704 203.618 116.281 208.297 114.444 211.805C112.581 215.359 109.147 218.136 105.32 219.316C101.602 220.46 97.0798 220.273 93.6044 218.432L92.9621 218.078L93.2816 214.005C94.3362 213.928 95.4137 213.913 96.4485 213.67C100.569 212.705 104.196 210.111 106.412 206.493C108.886 202.455 109.268 197.792 108.669 193.197C108.57 192.438 108.523 191.684 108.345 190.937Z" fill="#DCB495" stroke="black" stroke-width="6" mask="url(#path-4-inside-4_240_937)"/>
<mask id="path-5-inside-5_240_937" fill="white">
<path d="M183.227 117.071C186.804 118.47 190.017 121.719 191.544 125.206C193.456 129.575 193.585 133.916 191.831 138.369C190.193 142.529 186.987 145.779 182.901 147.559C182.176 147.875 181.316 148.181 180.535 148.313C180.432 148.33 180.348 148.361 180.25 148.395C179.407 148.684 178.273 148.706 177.39 148.688C175.328 148.646 173.442 148.365 171.571 147.436C170.166 146.738 168.991 145.578 168.015 144.369C172.288 142.242 176.141 139.416 179.35 135.887C181.245 133.803 182.913 131.313 183.828 128.633C184.945 125.357 185.077 121.337 183.749 118.097C183.605 117.746 183.395 117.413 183.227 117.071Z"/>
</mask>
<path d="M183.227 117.071C186.804 118.47 190.017 121.719 191.544 125.206C193.456 129.575 193.585 133.916 191.831 138.369C190.193 142.529 186.987 145.779 182.901 147.559C182.176 147.875 181.316 148.181 180.535 148.313C180.432 148.33 180.348 148.361 180.25 148.395C179.407 148.684 178.273 148.706 177.39 148.688C175.328 148.646 173.442 148.365 171.571 147.436C170.166 146.738 168.991 145.578 168.015 144.369C172.288 142.242 176.141 139.416 179.35 135.887C181.245 133.803 182.913 131.313 183.828 128.633C184.945 125.357 185.077 121.337 183.749 118.097C183.605 117.746 183.395 117.413 183.227 117.071Z" fill="#DCB495" stroke="black" stroke-width="6" mask="url(#path-5-inside-5_240_937)"/>
<mask id="path-6-inside-6_240_937" fill="white">
<path d="M45.9813 121.831C47.0515 122.217 48.0968 122.585 49.218 122.801C53.0508 123.54 56.8811 122.904 60.3979 121.259C62.7455 120.161 64.7856 118.473 67.0735 117.257C69.7156 115.853 72.6814 115.325 75.5403 116.371C79.1314 117.686 81.8291 121 83.3826 124.391C85.3332 128.648 85.4943 133.984 83.8736 138.361C82.2765 142.674 78.8205 146.835 74.5905 148.747C72.4548 149.713 69.9629 150.086 67.7179 149.241C65.4842 148.4 63.8609 146.673 62.2841 144.964C61.2214 143.813 60.1653 142.624 58.9314 141.652C55.7006 139.107 51.4839 138.305 47.4667 138.843L47.2949 138.763C47.0062 138.33 46.9589 137.412 46.8574 136.889C46.1919 133.456 45.923 129.879 45.9136 126.383L45.956 123.453C45.971 122.942 46.0308 122.448 45.9905 121.935L45.9813 121.831Z"/>
</mask>
<path d="M45.9813 121.831C47.0515 122.217 48.0968 122.585 49.218 122.801C53.0508 123.54 56.8811 122.904 60.3979 121.259C62.7455 120.161 64.7856 118.473 67.0735 117.257C69.7156 115.853 72.6814 115.325 75.5403 116.371C79.1314 117.686 81.8291 121 83.3826 124.391C85.3332 128.648 85.4943 133.984 83.8736 138.361C82.2765 142.674 78.8205 146.835 74.5905 148.747C72.4548 149.713 69.9629 150.086 67.7179 149.241C65.4842 148.4 63.8609 146.673 62.2841 144.964C61.2214 143.813 60.1653 142.624 58.9314 141.652C55.7006 139.107 51.4839 138.305 47.4667 138.843L47.2949 138.763C47.0062 138.33 46.9589 137.412 46.8574 136.889C46.1919 133.456 45.923 129.879 45.9136 126.383L45.956 123.453C45.971 122.942 46.0308 122.448 45.9905 121.935L45.9813 121.831Z" fill="white" stroke="black" stroke-width="6" mask="url(#path-6-inside-6_240_937)"/>
<mask id="path-7-inside-7_240_937" fill="white">
<path d="M92.9621 218.078C91.1921 217.148 89.5661 215.747 88.3073 214.197C85.8098 211.123 84.4998 206.799 84.9158 202.86C85.2096 200.078 86.5689 196.684 88.8235 194.928C89.6913 194.253 90.6911 193.925 91.789 194.049L91.9113 194.064C94.8 190.217 94.7713 185.09 93.749 180.579C93.4952 179.459 93.2728 178.367 92.8104 177.308C92.313 176.168 91.6053 175.277 90.9464 174.242C89.8547 172.529 89.0624 170.236 89.1663 168.184C89.231 166.904 89.4702 165.709 90.0714 164.564C92.0038 160.884 95.8609 158.383 99.7601 157.186C104.522 155.725 109.898 156.038 114.326 158.4C117.318 159.995 120.184 162.847 121.178 166.164C122.018 168.963 121.721 171.656 120.405 174.261C120.323 174.423 120.253 174.581 120.113 174.706C119.767 175.014 119.26 175.213 118.853 175.443C118.095 175.873 117.338 176.346 116.65 176.881C114.209 178.779 112.097 181.111 110.499 183.762C109.452 185.498 108.756 187.24 108.398 189.231C108.307 189.738 108.157 190.273 108.299 190.781L108.345 190.937C108.523 191.684 108.57 192.438 108.669 193.197C109.268 197.792 108.886 202.455 106.412 206.493C104.196 210.111 100.569 212.705 96.4485 213.67C95.4138 213.913 94.3362 213.928 93.2816 214.005L92.9621 218.078Z"/>
</mask>
<path d="M92.9621 218.078C91.1921 217.148 89.5661 215.747 88.3073 214.197C85.8098 211.123 84.4998 206.799 84.9158 202.86C85.2096 200.078 86.5689 196.684 88.8235 194.928C89.6913 194.253 90.6911 193.925 91.789 194.049L91.9113 194.064C94.8 190.217 94.7713 185.09 93.749 180.579C93.4952 179.459 93.2728 178.367 92.8104 177.308C92.313 176.168 91.6053 175.277 90.9464 174.242C89.8547 172.529 89.0624 170.236 89.1663 168.184C89.231 166.904 89.4702 165.709 90.0714 164.564C92.0038 160.884 95.8609 158.383 99.7601 157.186C104.522 155.725 109.898 156.038 114.326 158.4C117.318 159.995 120.184 162.847 121.178 166.164C122.018 168.963 121.721 171.656 120.405 174.261C120.323 174.423 120.253 174.581 120.113 174.706C119.767 175.014 119.26 175.213 118.853 175.443C118.095 175.873 117.338 176.346 116.65 176.881C114.209 178.779 112.097 181.111 110.499 183.762C109.452 185.498 108.756 187.24 108.398 189.231C108.307 189.738 108.157 190.273 108.299 190.781L108.345 190.937C108.523 191.684 108.57 192.438 108.669 193.197C109.268 197.792 108.886 202.455 106.412 206.493C104.196 210.111 100.569 212.705 96.4485 213.67C95.4138 213.913 94.3362 213.928 93.2816 214.005L92.9621 218.078Z" fill="#E4DBDB" stroke="black" stroke-width="6" mask="url(#path-7-inside-7_240_937)"/>
<mask id="path-8-inside-8_240_937" fill="white">
<path d="M168.015 144.37C166.63 142.407 165.209 140.661 163.04 139.502C160.999 138.412 158.702 138.078 156.417 138.143C155.665 138.164 154.702 138.216 153.983 138.44L152.336 138.869C151.299 139.184 150.36 139.585 149.393 140.071C144.901 142.322 140.414 146.39 135.126 146.142C132.207 146.004 129.352 143.874 127.455 141.792C125.034 139.135 123.59 136.018 123.08 132.467C123.002 131.92 122.833 131.257 122.873 130.709C122.889 130.487 122.897 130.649 122.875 130.419C122.593 127.442 123.512 124.278 124.885 121.659C126.815 117.979 130.349 113.781 134.432 112.525C137.754 111.504 140.928 112.331 143.537 114.569C145.066 115.879 146.36 117.445 147.795 118.851C149.38 120.405 151.15 121.848 153.12 122.88C155.367 124.057 158.073 124.759 160.576 123.937C162.147 123.421 164.08 122.586 165.08 121.212C165.538 120.583 165.863 119.92 166.419 119.36C168.697 117.064 172.706 115.618 175.924 115.63C178.368 115.638 181.019 115.949 183.227 117.071C183.395 117.413 183.605 117.746 183.749 118.097C185.077 121.338 184.945 125.358 183.828 128.633C182.913 131.314 181.245 133.804 179.35 135.888C176.141 139.417 172.288 142.242 168.015 144.37Z"/>
</mask>
<path d="M168.015 144.37C166.63 142.407 165.209 140.661 163.04 139.502C160.999 138.412 158.702 138.078 156.417 138.143C155.665 138.164 154.702 138.216 153.983 138.44L152.336 138.869C151.299 139.184 150.36 139.585 149.393 140.071C144.901 142.322 140.414 146.39 135.126 146.142C132.207 146.004 129.352 143.874 127.455 141.792C125.034 139.135 123.59 136.018 123.08 132.467C123.002 131.92 122.833 131.257 122.873 130.709C122.889 130.487 122.897 130.649 122.875 130.419C122.593 127.442 123.512 124.278 124.885 121.659C126.815 117.979 130.349 113.781 134.432 112.525C137.754 111.504 140.928 112.331 143.537 114.569C145.066 115.879 146.36 117.445 147.795 118.851C149.38 120.405 151.15 121.848 153.12 122.88C155.367 124.057 158.073 124.759 160.576 123.937C162.147 123.421 164.08 122.586 165.08 121.212C165.538 120.583 165.863 119.92 166.419 119.36C168.697 117.064 172.706 115.618 175.924 115.63C178.368 115.638 181.019 115.949 183.227 117.071C183.395 117.413 183.605 117.746 183.749 118.097C185.077 121.338 184.945 125.358 183.828 128.633C182.913 131.314 181.245 133.804 179.35 135.888C176.141 139.417 172.288 142.242 168.015 144.37Z" fill="#E4DBDB" stroke="black" stroke-width="6" mask="url(#path-8-inside-8_240_937)"/>
<mask id="path-9-inside-9_240_937" fill="white">
<path d="M114.029 72.681C114.143 73.5984 113.91 74.6837 113.93 75.6295C113.982 78.1436 114.412 80.7033 115.035 83.133C115.294 84.1445 115.523 85.159 116.095 86.0552C116.552 86.7723 117.109 87.425 117.559 88.1466C118.329 89.3811 118.706 91.0139 118.728 92.4551C118.772 95.4512 117.343 98.1079 115.276 100.198C111.462 104.054 106.148 105.12 100.921 105.103C97.7443 105.093 93.9929 104.004 91.4187 102.145C90.7433 101.657 90.1234 101.046 89.5413 100.45C87.29 98.1436 86.2115 94.8419 86.2732 91.6556C86.3013 90.2019 86.647 88.418 87.778 87.3861C88.2983 86.9113 89.1276 86.5219 89.722 86.1113C90.773 85.3853 91.6793 84.6057 92.5976 83.7237C95.4458 80.9889 99.7025 76.0391 99.6627 71.8807C99.6481 70.369 98.334 69.5529 97.2823 68.7492C96.8999 68.4569 96.5487 68.11 96.1971 67.7819C93.3277 65.105 91.8277 61.1996 91.7061 57.327C91.5884 53.5721 93.1291 49.4919 95.7276 46.7671C98.7927 43.553 102.739 41.785 107.182 41.7135C110.661 41.6575 114.811 42.7875 117.368 45.2618L117.306 53.1007C117.106 56.6804 116.512 60.2789 115.775 63.7848C115.422 65.4602 114.88 67.0838 114.405 68.7264C114.119 69.7141 113.772 70.7033 113.735 71.7386L113.731 71.8378C113.72 72.0819 113.749 72.287 113.796 72.5266L114.029 72.681Z"/>
</mask>
<path d="M114.029 72.681C114.143 73.5984 113.91 74.6837 113.93 75.6295C113.982 78.1436 114.412 80.7033 115.035 83.133C115.294 84.1445 115.523 85.159 116.095 86.0552C116.552 86.7723 117.109 87.425 117.559 88.1466C118.329 89.3811 118.706 91.0139 118.728 92.4551C118.772 95.4512 117.343 98.1079 115.276 100.198C111.462 104.054 106.148 105.12 100.921 105.103C97.7443 105.093 93.9929 104.004 91.4187 102.145C90.7433 101.657 90.1234 101.046 89.5413 100.45C87.29 98.1436 86.2115 94.8419 86.2732 91.6556C86.3013 90.2019 86.647 88.418 87.778 87.3861C88.2983 86.9113 89.1276 86.5219 89.722 86.1113C90.773 85.3853 91.6793 84.6057 92.5976 83.7237C95.4458 80.9889 99.7025 76.0391 99.6627 71.8807C99.6481 70.369 98.334 69.5529 97.2823 68.7492C96.8999 68.4569 96.5487 68.11 96.1971 67.7819C93.3277 65.105 91.8277 61.1996 91.7061 57.327C91.5884 53.5721 93.1291 49.4919 95.7276 46.7671C98.7927 43.553 102.739 41.785 107.182 41.7135C110.661 41.6575 114.811 42.7875 117.368 45.2618L117.306 53.1007C117.106 56.6804 116.512 60.2789 115.775 63.7848C115.422 65.4602 114.88 67.0838 114.405 68.7264C114.119 69.7141 113.772 70.7033 113.735 71.7386L113.731 71.8378C113.72 72.0819 113.749 72.287 113.796 72.5266L114.029 72.681Z" fill="url(#paint0_linear_240_937)" stroke="black" stroke-width="6" mask="url(#path-9-inside-9_240_937)"/>
<mask id="path-10-inside-10_240_937" fill="white">
<path d="M49.2512 179.251L48.5005 179.169L51.3985 157.46L51.9782 152.995C52.2 151.446 52.554 149.764 52.4938 148.204C52.4309 146.569 52.0282 144.789 51.1618 143.382C50.4429 142.215 49.4645 141.273 48.4695 140.348C50.0672 140.289 51.7198 140.308 53.2828 140.697C55.2836 141.194 57.03 142.183 58.5692 143.548C59.38 144.268 60.078 145.127 60.8148 145.921C63.3997 148.707 66.0956 151.113 70.0796 151.284C74.1356 151.459 77.6172 149.241 80.4599 146.571C84.519 142.757 86.4037 137.522 86.6292 132.063C86.6498 131.567 86.5461 131.075 86.5688 130.585L86.5783 130.266C86.5178 129.261 86.2799 128.177 86.0385 127.201C85.1484 123.601 83.4676 120.334 80.7342 117.777C78.4773 115.665 75.4642 114.059 72.2996 114.19L69.9637 114.453C69.8455 114.461 69.7615 114.449 69.6527 114.508C69.5354 114.571 69.6088 114.548 69.482 114.578C65.7003 115.459 62.9414 118.152 59.5044 119.753C56.5907 121.11 53.3027 121.827 50.0959 121.269C48.9601 121.071 47.925 120.701 46.8461 120.309C48.437 119.413 49.7368 118.027 50.417 116.318C51.1602 114.451 51.2985 112.442 51.5967 110.473L52.9387 100.655L54.9561 85.3786L55.6362 79.6712L56.1297 75.7579C56.2006 75.2211 56.2104 74.4963 56.5291 74.0427C56.863 73.5678 57.4198 73.2957 57.9967 73.2624C58.6101 73.2271 59.3418 73.3857 59.9509 73.4678L63.7637 73.984L85.2314 76.9272L90.6163 77.6698C92.3123 77.8968 93.758 78.2163 95.4769 77.9467C94.9559 78.8496 94.256 79.6364 93.5632 80.409C92.0856 82.057 90.4303 83.5259 88.6692 84.8645C87.9437 85.416 87.0996 85.7581 86.4542 86.414C84.706 88.1909 84.5652 90.7953 84.6247 93.1396C84.7164 96.7565 86.6449 100.137 89.2497 102.539C92.8731 105.881 98.2656 107.046 103.066 106.797C108.013 106.541 113.354 104.855 116.761 101.097C117.576 100.198 118.342 99.254 118.924 98.1839C120.586 95.1279 120.901 91.1665 119.371 87.9924C119.125 87.483 118.863 86.974 118.533 86.5134C117.986 85.7492 117.448 85.2221 117.099 84.322C116.066 81.6616 115.723 78.5045 115.572 75.6783C116.278 76.3795 117.135 77.1969 118.073 77.5625C119.622 78.1669 121.416 78.2516 123.056 78.4306L128.947 79.0523L136.463 79.9387C135.826 80.9947 135.375 82.1406 134.862 83.2594L131.653 90.2494L121.197 109.7C111.352 126.288 98.2014 140.852 83.6311 153.408L71.7033 163L49.2512 179.251Z"/>
</mask>
<path d="M49.2512 179.251L48.5005 179.169L51.3985 157.46L51.9782 152.995C52.2 151.446 52.554 149.764 52.4938 148.204C52.4309 146.569 52.0282 144.789 51.1618 143.382C50.4429 142.215 49.4645 141.273 48.4695 140.348C50.0672 140.289 51.7198 140.308 53.2828 140.697C55.2836 141.194 57.03 142.183 58.5692 143.548C59.38 144.268 60.078 145.127 60.8148 145.921C63.3997 148.707 66.0956 151.113 70.0796 151.284C74.1356 151.459 77.6172 149.241 80.4599 146.571C84.519 142.757 86.4037 137.522 86.6292 132.063C86.6498 131.567 86.5461 131.075 86.5688 130.585L86.5783 130.266C86.5178 129.261 86.2799 128.177 86.0385 127.201C85.1484 123.601 83.4676 120.334 80.7342 117.777C78.4773 115.665 75.4642 114.059 72.2996 114.19L69.9637 114.453C69.8455 114.461 69.7615 114.449 69.6527 114.508C69.5354 114.571 69.6088 114.548 69.482 114.578C65.7003 115.459 62.9414 118.152 59.5044 119.753C56.5907 121.11 53.3027 121.827 50.0959 121.269C48.9601 121.071 47.925 120.701 46.8461 120.309C48.437 119.413 49.7368 118.027 50.417 116.318C51.1602 114.451 51.2985 112.442 51.5967 110.473L52.9387 100.655L54.9561 85.3786L55.6362 79.6712L56.1297 75.7579C56.2006 75.2211 56.2104 74.4963 56.5291 74.0427C56.863 73.5678 57.4198 73.2957 57.9967 73.2624C58.6101 73.2271 59.3418 73.3857 59.9509 73.4678L63.7637 73.984L85.2314 76.9272L90.6163 77.6698C92.3123 77.8968 93.758 78.2163 95.4769 77.9467C94.9559 78.8496 94.256 79.6364 93.5632 80.409C92.0856 82.057 90.4303 83.5259 88.6692 84.8645C87.9437 85.416 87.0996 85.7581 86.4542 86.414C84.706 88.1909 84.5652 90.7953 84.6247 93.1396C84.7164 96.7565 86.6449 100.137 89.2497 102.539C92.8731 105.881 98.2656 107.046 103.066 106.797C108.013 106.541 113.354 104.855 116.761 101.097C117.576 100.198 118.342 99.254 118.924 98.1839C120.586 95.1279 120.901 91.1665 119.371 87.9924C119.125 87.483 118.863 86.974 118.533 86.5134C117.986 85.7492 117.448 85.2221 117.099 84.322C116.066 81.6616 115.723 78.5045 115.572 75.6783C116.278 76.3795 117.135 77.1969 118.073 77.5625C119.622 78.1669 121.416 78.2516 123.056 78.4306L128.947 79.0523L136.463 79.9387C135.826 80.9947 135.375 82.1406 134.862 83.2594L131.653 90.2494L121.197 109.7C111.352 126.288 98.2014 140.852 83.6311 153.408L71.7033 163L49.2512 179.251Z" fill="#E4DBDB" stroke="black" stroke-width="6" mask="url(#path-10-inside-10_240_937)"/>
<mask id="path-11-inside-11_240_937" fill="white">
<path d="M136.464 79.9394L149.938 81.5586L155.926 82.2759C156.523 82.353 157.195 82.3398 157.771 82.5072C158.26 82.649 158.769 83.0362 159.084 83.4295C159.279 83.6717 159.469 84.0687 159.572 84.3601C159.663 84.616 159.486 85.223 159.439 85.4943L158.84 89.1236L156.987 103.533L156.16 111.601C155.977 113.743 155.69 115.957 155.989 118.098C156.191 119.545 156.747 121.078 157.985 121.954C158.323 122.193 158.699 122.4 159.075 122.571C158.521 122.598 157.909 122.661 157.359 122.579C154.755 122.193 152.195 120.557 150.266 118.824C147.508 116.347 145.135 112.993 141.712 111.392C140.156 110.664 138.376 110.374 136.668 110.463C132.61 110.675 129.405 113.018 126.801 115.976C123.044 120.243 120.804 125.531 121.157 131.284C121.374 134.824 122.763 138.281 124.772 141.179C125.454 142.164 126.25 143.178 127.155 143.968C129.233 145.781 131.911 147.646 134.749 147.853C135.172 147.884 135.601 147.914 136.026 147.899C136.334 147.889 136.754 147.8 137.044 147.908L137.152 147.859C137.673 147.634 138.378 147.6 138.939 147.462C140.013 147.198 141.094 146.714 142.077 146.214C147.024 143.696 151.139 139.898 157.002 139.889C158.521 139.886 159.95 140.061 161.357 140.664L162.912 141.366C161.329 141.538 160.001 141.874 158.939 143.175C157.383 145.081 156.935 147.922 156.462 150.26C155.057 157.205 154.622 164.34 153.904 171.379L152.416 183.708C152.286 184.597 151.901 188.159 150.891 188.277C150.227 188.354 149.493 188.217 148.831 188.145L145.194 187.71L138.317 186.916L112.573 183.838C114.05 181.109 116.547 178.786 119.177 177.171L120.615 176.354C120.844 176.231 121.164 176.097 121.34 175.901C121.715 175.481 122.004 174.832 122.242 174.323C123.5 171.628 123.708 168.644 122.862 165.792C121.679 161.804 118.403 158.701 114.823 156.786C110.064 154.242 104.33 153.971 99.2152 155.553C95.0028 156.857 90.7976 159.669 88.7141 163.646C87.4285 166.101 87.0371 169.142 87.8826 171.81C88.2728 173.04 88.874 174.36 89.6073 175.424C89.9702 175.95 90.397 176.403 90.718 176.963C91.5666 178.444 91.9313 180.041 92.2851 181.694C92.6263 183.29 92.9464 185 92.7555 186.633C91.3163 185.665 89.7475 184.611 88.0638 184.129C87.1183 183.858 85.9217 183.9 84.9342 183.793L77.8845 182.975L59.977 180.747L49.2514 179.251L71.7034 163.001L83.6313 153.408C98.2016 140.852 111.353 126.289 121.197 109.7L131.653 90.2501L134.862 83.26C135.375 82.1412 135.826 80.9953 136.464 79.9394Z"/>
</mask>
<path d="M136.464 79.9394L149.938 81.5586L155.926 82.2759C156.523 82.353 157.195 82.3398 157.771 82.5072C158.26 82.649 158.769 83.0362 159.084 83.4295C159.279 83.6717 159.469 84.0687 159.572 84.3601C159.663 84.616 159.486 85.223 159.439 85.4943L158.84 89.1236L156.987 103.533L156.16 111.601C155.977 113.743 155.69 115.957 155.989 118.098C156.191 119.545 156.747 121.078 157.985 121.954C158.323 122.193 158.699 122.4 159.075 122.571C158.521 122.598 157.909 122.661 157.359 122.579C154.755 122.193 152.195 120.557 150.266 118.824C147.508 116.347 145.135 112.993 141.712 111.392C140.156 110.664 138.376 110.374 136.668 110.463C132.61 110.675 129.405 113.018 126.801 115.976C123.044 120.243 120.804 125.531 121.157 131.284C121.374 134.824 122.763 138.281 124.772 141.179C125.454 142.164 126.25 143.178 127.155 143.968C129.233 145.781 131.911 147.646 134.749 147.853C135.172 147.884 135.601 147.914 136.026 147.899C136.334 147.889 136.754 147.8 137.044 147.908L137.152 147.859C137.673 147.634 138.378 147.6 138.939 147.462C140.013 147.198 141.094 146.714 142.077 146.214C147.024 143.696 151.139 139.898 157.002 139.889C158.521 139.886 159.95 140.061 161.357 140.664L162.912 141.366C161.329 141.538 160.001 141.874 158.939 143.175C157.383 145.081 156.935 147.922 156.462 150.26C155.057 157.205 154.622 164.34 153.904 171.379L152.416 183.708C152.286 184.597 151.901 188.159 150.891 188.277C150.227 188.354 149.493 188.217 148.831 188.145L145.194 187.71L138.317 186.916L112.573 183.838C114.05 181.109 116.547 178.786 119.177 177.171L120.615 176.354C120.844 176.231 121.164 176.097 121.34 175.901C121.715 175.481 122.004 174.832 122.242 174.323C123.5 171.628 123.708 168.644 122.862 165.792C121.679 161.804 118.403 158.701 114.823 156.786C110.064 154.242 104.33 153.971 99.2152 155.553C95.0028 156.857 90.7976 159.669 88.7141 163.646C87.4285 166.101 87.0371 169.142 87.8826 171.81C88.2728 173.04 88.874 174.36 89.6073 175.424C89.9702 175.95 90.397 176.403 90.718 176.963C91.5666 178.444 91.9313 180.041 92.2851 181.694C92.6263 183.29 92.9464 185 92.7555 186.633C91.3163 185.665 89.7475 184.611 88.0638 184.129C87.1183 183.858 85.9217 183.9 84.9342 183.793L77.8845 182.975L59.977 180.747L49.2514 179.251L71.7034 163.001L83.6313 153.408C98.2016 140.852 111.353 126.289 121.197 109.7L131.653 90.2501L134.862 83.26C135.375 82.1412 135.826 80.9953 136.464 79.9394Z" fill="#DCB495" stroke="black" stroke-width="6" mask="url(#path-11-inside-11_240_937)"/>
<mask id="path-12-inside-12_240_937" fill="white">
<path d="M187.603 28.2758L188.393 27.9313C188.432 27.9087 188.459 27.8834 188.505 27.8714C190.026 27.4729 191.551 27.5982 192.905 28.443C194.03 29.1449 194.908 30.3522 195.203 31.6446C195.532 33.0859 195.308 34.4876 194.517 35.7379C193.839 36.81 192.681 37.7338 191.434 38.0131C190.901 38.1326 190.356 38.2331 189.873 37.9216L189.591 37.7304C188.895 37.3529 188.166 37.2523 187.387 37.2895L187.368 37.2625C187.274 37.1292 187.212 36.9848 187.134 36.8431L186.676 36.0375C186.114 35.0859 185.468 34.1536 184.737 33.3243C184.626 33.1978 184.466 32.9552 184.318 32.8832L184.258 32.889C184.518 32.6859 184.798 32.4853 184.966 32.1948C185.128 31.9156 185.128 31.5231 185.229 31.2118C185.582 30.1206 186.252 29.1999 187.186 28.531C187.318 28.4364 187.465 28.3612 187.603 28.2758Z"/>
</mask>
<path d="M187.603 28.2758L188.393 27.9313C188.432 27.9087 188.459 27.8834 188.505 27.8714C190.026 27.4729 191.551 27.5982 192.905 28.443C194.03 29.1449 194.908 30.3522 195.203 31.6446C195.532 33.0859 195.308 34.4876 194.517 35.7379C193.839 36.81 192.681 37.7338 191.434 38.0131C190.901 38.1326 190.356 38.2331 189.873 37.9216L189.591 37.7304C188.895 37.3529 188.166 37.2523 187.387 37.2895L187.368 37.2625C187.274 37.1292 187.212 36.9848 187.134 36.8431L186.676 36.0375C186.114 35.0859 185.468 34.1536 184.737 33.3243C184.626 33.1978 184.466 32.9552 184.318 32.8832L184.258 32.889C184.518 32.6859 184.798 32.4853 184.966 32.1948C185.128 31.9156 185.128 31.5231 185.229 31.2118C185.582 30.1206 186.252 29.1999 187.186 28.531C187.318 28.4364 187.465 28.3612 187.603 28.2758Z" fill="#E4DBDB" stroke="black" stroke-width="1.89698" mask="url(#path-12-inside-12_240_937)"/>
<mask id="path-13-inside-13_240_937" fill="white">
<path d="M189.591 37.7294C188.895 37.3519 188.166 37.2513 187.387 37.2885L187.367 37.2615C187.274 37.1283 187.212 36.9838 187.134 36.8421L186.676 36.0365C186.114 35.0849 185.468 34.1526 184.737 33.3233C184.626 33.1969 184.466 32.9542 184.318 32.8823L184.258 32.888C184.518 32.6849 184.798 32.4844 184.966 32.1938C185.128 31.9146 185.128 31.5221 185.229 31.2108C185.582 30.1197 186.251 29.1989 187.186 28.53C187.318 28.4355 187.465 28.3602 187.603 28.2748L187.812 28.5002C188.038 28.7652 188.203 29.0591 188.375 29.3599C189.411 31.1706 189.817 33.3674 189.791 35.4351C189.781 36.1998 189.657 36.9676 189.591 37.7294Z"/>
</mask>
<path d="M189.591 37.7294C188.895 37.3519 188.166 37.2513 187.387 37.2885L187.367 37.2615C187.274 37.1283 187.212 36.9838 187.134 36.8421L186.676 36.0365C186.114 35.0849 185.468 34.1526 184.737 33.3233C184.626 33.1969 184.466 32.9542 184.318 32.8823L184.258 32.888C184.518 32.6849 184.798 32.4844 184.966 32.1938C185.128 31.9146 185.128 31.5221 185.229 31.2108C185.582 30.1197 186.251 29.1989 187.186 28.53C187.318 28.4355 187.465 28.3602 187.603 28.2748L187.812 28.5002C188.038 28.7652 188.203 29.0591 188.375 29.3599C189.411 31.1706 189.817 33.3674 189.791 35.4351C189.781 36.1998 189.657 36.9676 189.591 37.7294Z" fill="#DCB495" stroke="black" stroke-width="1.89698" mask="url(#path-13-inside-13_240_937)"/>
<mask id="path-14-inside-14_240_937" fill="white">
<path d="M180.18 69.5914C179.232 69.4373 178.249 69.0193 177.537 68.3628C177.238 68.0872 176.953 67.7141 176.714 67.3848C176.14 66.5928 175.838 65.4758 176.006 64.5095C176.046 64.2789 176.115 64.0486 176.229 63.8437C176.366 63.5977 176.559 63.3877 176.703 63.1465C176.885 62.8414 176.948 62.4943 176.891 62.1431C176.858 61.9382 176.777 61.7713 176.701 61.5813L176.79 61.5859C176.841 61.6437 176.881 61.6951 176.918 61.7633L176.932 61.7911C177.088 62.0793 177.152 62.4045 177.232 62.7195C177.365 63.2435 177.477 63.7729 177.65 64.2861C178.01 65.36 178.424 66.4362 178.942 67.4442L180.18 69.5914Z"/>
</mask>
<path d="M180.18 69.5914C179.232 69.4373 178.249 69.0193 177.537 68.3628C177.238 68.0872 176.953 67.7141 176.714 67.3848C176.14 66.5928 175.838 65.4758 176.006 64.5095C176.046 64.2789 176.115 64.0486 176.229 63.8437C176.366 63.5977 176.559 63.3877 176.703 63.1465C176.885 62.8414 176.948 62.4943 176.891 62.1431C176.858 61.9382 176.777 61.7713 176.701 61.5813L176.79 61.5859C176.841 61.6437 176.881 61.6951 176.918 61.7633L176.932 61.7911C177.088 62.0793 177.152 62.4045 177.232 62.7195C177.365 63.2435 177.477 63.7729 177.65 64.2861C178.01 65.36 178.424 66.4362 178.942 67.4442L180.18 69.5914Z" fill="#DCB495" stroke="black" stroke-width="1.89698" mask="url(#path-14-inside-14_240_937)"/>
<mask id="path-15-inside-15_240_937" fill="white">
<path d="M159.321 28.43C159.103 28.4423 158.881 28.4125 158.664 28.3865C157.642 28.2634 156.713 27.8359 155.948 27.1497C155.012 26.3105 154.378 24.9673 154.318 23.7167C154.257 22.4495 154.748 21.1426 155.603 20.2085C156.434 19.3013 157.696 18.6283 158.939 18.574L159.17 18.5677L159.735 19.7293C159.46 19.9191 159.169 20.0957 158.925 20.3275C157.957 21.2502 157.383 22.5382 157.358 23.8792C157.33 25.376 157.972 26.7086 158.871 27.8656C159.02 28.0567 159.153 28.2546 159.321 28.43Z"/>
</mask>
<path d="M159.321 28.43C159.103 28.4423 158.881 28.4125 158.664 28.3865C157.642 28.2634 156.713 27.8359 155.948 27.1497C155.012 26.3105 154.378 24.9673 154.318 23.7167C154.257 22.4495 154.748 21.1426 155.603 20.2085C156.434 19.3013 157.696 18.6283 158.939 18.574L159.17 18.5677L159.735 19.7293C159.46 19.9191 159.169 20.0957 158.925 20.3275C157.957 21.2502 157.383 22.5382 157.358 23.8792C157.33 25.376 157.972 26.7086 158.871 27.8656C159.02 28.0567 159.153 28.2546 159.321 28.43Z" fill="#DCB495" stroke="black" stroke-width="1.89698" mask="url(#path-15-inside-15_240_937)"/>
<mask id="path-16-inside-16_240_937" fill="white">
<path d="M150.729 60.5553C149.53 60.7464 148.134 60.375 147.16 59.6688C145.939 58.7838 145.209 57.6208 144.974 56.1258C144.755 54.7295 145.109 53.3303 145.938 52.1909C146.085 51.9887 146.27 51.7674 146.462 51.6066C146.488 51.5853 146.505 51.5636 146.527 51.5386C146.71 51.3249 147.016 51.1374 147.26 51.0008C147.829 50.682 148.388 50.457 149.047 50.4107C149.541 50.376 150.047 50.5043 150.507 50.6775C149.683 51.9415 149.084 53.3287 148.774 54.8046C148.591 55.6762 148.535 56.622 148.715 57.4993C148.934 58.5712 149.542 59.6882 150.423 60.3592C150.518 60.4319 150.629 60.489 150.729 60.5553Z"/>
</mask>
<path d="M150.729 60.5553C149.53 60.7464 148.134 60.375 147.16 59.6688C145.939 58.7838 145.209 57.6208 144.974 56.1258C144.755 54.7295 145.109 53.3303 145.938 52.1909C146.085 51.9887 146.27 51.7674 146.462 51.6066C146.488 51.5853 146.505 51.5636 146.527 51.5386C146.71 51.3249 147.016 51.1374 147.26 51.0008C147.829 50.682 148.388 50.457 149.047 50.4107C149.541 50.376 150.047 50.5043 150.507 50.6775C149.683 51.9415 149.084 53.3287 148.774 54.8046C148.591 55.6762 148.535 56.622 148.715 57.4993C148.934 58.5712 149.542 59.6882 150.423 60.3592C150.518 60.4319 150.629 60.489 150.729 60.5553Z" fill="#DCB495" stroke="black" stroke-width="1.89698" mask="url(#path-16-inside-16_240_937)"/>
<mask id="path-17-inside-17_240_937" fill="white">
<path d="M187.387 37.2884C187.033 37.3545 186.689 37.4214 186.349 37.542C185.185 37.9539 184.243 38.7405 183.548 39.7521C183.083 40.4273 182.797 41.214 182.368 41.9118C181.873 42.7176 181.148 43.3362 180.201 43.5085C179.012 43.725 177.746 43.2533 176.78 42.5776C175.566 41.729 174.668 40.3 174.409 38.8472C174.154 37.4155 174.431 35.7278 175.278 34.5294C175.705 33.9243 176.325 33.4236 177.072 33.2946C177.816 33.1664 178.535 33.3773 179.239 33.5908C179.713 33.7347 180.191 33.8897 180.683 33.9572C181.971 34.134 183.249 33.6777 184.258 32.8879L184.318 32.8821C184.466 32.9541 184.626 33.1967 184.737 33.3231C185.468 34.1525 186.114 35.0848 186.676 36.0364L187.134 36.8419C187.211 36.9837 187.274 37.1281 187.367 37.2614L187.387 37.2884Z"/>
</mask>
<path d="M187.387 37.2884C187.033 37.3545 186.689 37.4214 186.349 37.542C185.185 37.9539 184.243 38.7405 183.548 39.7521C183.083 40.4273 182.797 41.214 182.368 41.9118C181.873 42.7176 181.148 43.3362 180.201 43.5085C179.012 43.725 177.746 43.2533 176.78 42.5776C175.566 41.729 174.668 40.3 174.409 38.8472C174.154 37.4155 174.431 35.7278 175.278 34.5294C175.705 33.9243 176.325 33.4236 177.072 33.2946C177.816 33.1664 178.535 33.3773 179.239 33.5908C179.713 33.7347 180.191 33.8897 180.683 33.9572C181.971 34.134 183.249 33.6777 184.258 32.8879L184.318 32.8821C184.466 32.9541 184.626 33.1967 184.737 33.3231C185.468 34.1525 186.114 35.0848 186.676 36.0364L187.134 36.8419C187.211 36.9837 187.274 37.1281 187.367 37.2614L187.387 37.2884Z" fill="white" stroke="black" stroke-width="1.89698" mask="url(#path-17-inside-17_240_937)"/>
<mask id="path-18-inside-18_240_937" fill="white">
<path d="M159.17 18.5668C159.802 18.537 160.469 18.6586 161.061 18.8797C162.234 19.3181 163.283 20.2872 163.8 21.4278C164.165 22.2332 164.338 23.3762 164.004 24.2159C163.876 24.539 163.656 24.7882 163.337 24.9303L163.301 24.9459C163.129 26.4572 163.958 27.8502 164.959 28.9167C165.207 29.1813 165.442 29.4434 165.738 29.6582C166.056 29.8893 166.392 30.0191 166.737 30.1956C167.309 30.4879 167.892 30.9863 168.192 31.5623C168.379 31.9218 168.505 32.2857 168.525 32.6941C168.587 34.0069 167.936 35.3063 167.064 36.2567C166 37.4174 164.484 38.1925 162.899 38.2576C161.828 38.3015 160.59 37.9828 159.788 37.2377C159.111 36.6088 158.761 35.8272 158.702 34.9062C158.699 34.8488 158.693 34.7944 158.711 34.7382C158.756 34.5989 158.862 34.4634 158.936 34.3354C159.074 34.0969 159.205 33.8467 159.307 33.5909C159.668 32.6824 159.871 31.7086 159.882 30.7301C159.89 30.0892 159.801 29.5027 159.58 28.9024C159.523 28.7498 159.478 28.58 159.359 28.4642L159.321 28.4291C159.153 28.2538 159.02 28.0558 158.871 27.8647C157.972 26.7078 157.33 25.3752 157.358 23.8783C157.383 22.5374 157.957 21.2493 158.925 20.3266C159.169 20.0948 159.46 19.9182 159.735 19.7284L159.17 18.5668Z"/>
</mask>
<path d="M159.17 18.5668C159.802 18.537 160.469 18.6586 161.061 18.8797C162.234 19.3181 163.283 20.2872 163.8 21.4278C164.165 22.2332 164.338 23.3762 164.004 24.2159C163.876 24.539 163.656 24.7882 163.337 24.9303L163.301 24.9459C163.129 26.4572 163.958 27.8502 164.959 28.9167C165.207 29.1813 165.442 29.4434 165.738 29.6582C166.056 29.8893 166.392 30.0191 166.737 30.1956C167.309 30.4879 167.892 30.9863 168.192 31.5623C168.379 31.9218 168.505 32.2857 168.525 32.6941C168.587 34.0069 167.936 35.3063 167.064 36.2567C166 37.4174 164.484 38.1925 162.899 38.2576C161.828 38.3015 160.59 37.9828 159.788 37.2377C159.111 36.6088 158.761 35.8272 158.702 34.9062C158.699 34.8488 158.693 34.7944 158.711 34.7382C158.756 34.5989 158.862 34.4634 158.936 34.3354C159.074 34.0969 159.205 33.8467 159.307 33.5909C159.668 32.6824 159.871 31.7086 159.882 30.7301C159.89 30.0892 159.801 29.5027 159.58 28.9024C159.523 28.7498 159.478 28.58 159.359 28.4642L159.321 28.4291C159.153 28.2538 159.02 28.0558 158.871 27.8647C157.972 26.7078 157.33 25.3752 157.358 23.8783C157.383 22.5374 157.957 21.2493 158.925 20.3266C159.169 20.0948 159.46 19.9182 159.735 19.7284L159.17 18.5668Z" fill="#E4DBDB" stroke="black" stroke-width="1.89698" mask="url(#path-18-inside-18_240_937)"/>
<mask id="path-19-inside-19_240_937" fill="white">
<path d="M150.507 50.6778C151.199 50.9913 151.866 51.2397 152.643 51.2085C153.374 51.1791 154.053 50.9024 154.666 50.5189C154.868 50.3929 155.122 50.2244 155.282 50.0483L155.662 49.6678C155.895 49.4158 156.086 49.1561 156.273 48.8689C157.137 47.5362 157.709 45.7087 159.19 44.9299C160.008 44.5 161.128 44.624 161.978 44.8879C163.063 45.2246 163.956 45.8434 164.664 46.7299C164.773 46.8664 164.925 47.0202 165.002 47.1761C165.033 47.2392 165.005 47.1963 165.047 47.2555C165.601 48.0221 165.857 49.0317 165.902 49.9656C165.964 51.278 165.673 52.9882 164.761 53.9841C164.019 54.7943 163.021 55.0768 161.951 54.8846C161.325 54.772 160.721 54.5523 160.105 54.3985C159.424 54.2286 158.711 54.1185 158.008 54.1525C157.207 54.1912 156.357 54.433 155.806 55.058C155.461 55.4501 155.067 55.9871 155.014 56.5217C154.99 56.7666 155.007 56.9994 154.946 57.2411C154.692 58.2318 153.831 59.2675 152.951 59.7796C152.284 60.1686 151.511 60.5081 150.73 60.5556C150.629 60.4893 150.518 60.4321 150.423 60.3595C149.542 59.6885 148.935 58.5715 148.715 57.4996C148.535 56.6223 148.591 55.6765 148.774 54.8049C149.085 53.329 149.683 51.9418 150.507 50.6778Z"/>
</mask>
<path d="M150.507 50.6778C151.199 50.9913 151.866 51.2397 152.643 51.2085C153.374 51.1791 154.053 50.9024 154.666 50.5189C154.868 50.3929 155.122 50.2244 155.282 50.0483L155.662 49.6678C155.895 49.4158 156.086 49.1561 156.273 48.8689C157.137 47.5362 157.709 45.7087 159.19 44.9299C160.008 44.5 161.128 44.624 161.978 44.8879C163.063 45.2246 163.956 45.8434 164.664 46.7299C164.773 46.8664 164.925 47.0202 165.002 47.1761C165.033 47.2392 165.005 47.1963 165.047 47.2555C165.601 48.0221 165.857 49.0317 165.902 49.9656C165.964 51.278 165.673 52.9882 164.761 53.9841C164.019 54.7943 163.021 55.0768 161.951 54.8846C161.325 54.772 160.721 54.5523 160.105 54.3985C159.424 54.2286 158.711 54.1185 158.008 54.1525C157.207 54.1912 156.357 54.433 155.806 55.058C155.461 55.4501 155.067 55.9871 155.014 56.5217C154.99 56.7666 155.007 56.9994 154.946 57.2411C154.692 58.2318 153.831 59.2675 152.951 59.7796C152.284 60.1686 151.511 60.5081 150.73 60.5556C150.629 60.4893 150.518 60.4321 150.423 60.3595C149.542 59.6885 148.935 58.5715 148.715 57.4996C148.535 56.6223 148.591 55.6765 148.774 54.8049C149.085 53.329 149.683 51.9418 150.507 50.6778Z" fill="#E4DBDB" stroke="black" stroke-width="1.89698" mask="url(#path-19-inside-19_240_937)"/>
<mask id="path-20-inside-20_240_937" fill="white">
<path d="M176.701 61.5816C176.523 61.3497 176.413 61.0165 176.256 60.7618C175.84 60.0846 175.313 59.4557 174.754 58.8928C174.522 58.6585 174.296 58.4187 173.997 58.2658C173.758 58.1434 173.501 58.0547 173.263 57.93C172.856 57.7167 172.491 57.3319 172.255 56.9424C171.763 56.1326 171.728 55.1795 171.957 54.2788C172.379 52.6168 173.657 51.4756 175.085 50.6435C175.953 50.1378 177.15 49.8341 178.149 49.929C178.412 49.9539 178.678 50.0212 178.933 50.0905C179.916 50.359 180.738 51.0865 181.231 51.9651C181.456 52.366 181.648 52.9077 181.505 53.3701C181.439 53.5828 181.275 53.8217 181.179 54.0288C181.008 54.395 180.886 54.7527 180.777 55.1401C180.438 56.3417 180.07 58.3726 180.746 59.5C180.992 59.9098 181.481 59.9219 181.897 59.9727C182.048 59.9912 182.199 60.0296 182.347 60.0627C183.558 60.3332 184.592 61.1579 185.245 62.1943C185.879 63.1992 186.112 64.5582 185.839 65.7171C185.518 67.0841 184.725 68.1979 183.525 68.9285C182.586 69.5007 181.274 69.8569 180.18 69.5917L178.942 67.4445C178.424 66.4365 178.01 65.3603 177.65 64.2864C177.477 63.7732 177.365 63.2438 177.232 62.7199C177.152 62.4048 177.088 62.0796 176.932 61.7914L176.918 61.7636C176.881 61.6954 176.841 61.6441 176.79 61.5863L176.701 61.5816Z"/>
</mask>
<path d="M176.701 61.5816C176.523 61.3497 176.413 61.0165 176.256 60.7618C175.84 60.0846 175.313 59.4557 174.754 58.8928C174.522 58.6585 174.296 58.4187 173.997 58.2658C173.758 58.1434 173.501 58.0547 173.263 57.93C172.856 57.7167 172.491 57.3319 172.255 56.9424C171.763 56.1326 171.728 55.1795 171.957 54.2788C172.379 52.6168 173.657 51.4756 175.085 50.6435C175.953 50.1378 177.15 49.8341 178.149 49.929C178.412 49.9539 178.678 50.0212 178.933 50.0905C179.916 50.359 180.738 51.0865 181.231 51.9651C181.456 52.366 181.648 52.9077 181.505 53.3701C181.439 53.5828 181.275 53.8217 181.179 54.0288C181.008 54.395 180.886 54.7527 180.777 55.1401C180.438 56.3417 180.07 58.3726 180.746 59.5C180.992 59.9098 181.481 59.9219 181.897 59.9727C182.048 59.9912 182.199 60.0296 182.347 60.0627C183.558 60.3332 184.592 61.1579 185.245 62.1943C185.879 63.1992 186.112 64.5582 185.839 65.7171C185.518 67.0841 184.725 68.1979 183.525 68.9285C182.586 69.5007 181.274 69.8569 180.18 69.5917L178.942 67.4445C178.424 66.4365 178.01 65.3603 177.65 64.2864C177.477 63.7732 177.365 63.2438 177.232 62.7199C177.152 62.4048 177.088 62.0796 176.932 61.7914L176.918 61.7636C176.881 61.6954 176.841 61.6441 176.79 61.5863L176.701 61.5816Z" fill="url(#paint1_linear_240_937)" stroke="black" stroke-width="1.89698" mask="url(#path-20-inside-20_240_937)"/>
<mask id="path-21-inside-21_240_937" fill="white">
<path d="M177.303 22.1557L177.521 22.0578L180.206 28.4405L180.763 29.7506C180.95 30.2084 181.123 30.7237 181.389 31.1395C181.668 31.5752 182.063 31.9961 182.524 32.2409C182.907 32.444 183.324 32.5442 183.744 32.6371C183.318 32.909 182.864 33.1683 182.376 33.3125C181.75 33.4972 181.116 33.5071 180.478 33.3813C180.142 33.315 179.814 33.1925 179.486 33.0939C178.335 32.7481 177.215 32.5236 176.101 33.1147C174.968 33.7165 174.373 34.8783 174.026 36.0615C173.529 37.751 173.854 39.48 174.666 41.0044C174.74 41.1431 174.847 41.2604 174.919 41.3978L174.968 41.4863C175.145 41.7506 175.383 42.0081 175.605 42.2355C176.424 43.0745 177.406 43.6962 178.56 43.9559C179.514 44.1703 180.592 44.1259 181.434 43.5836L182.029 43.138C182.06 43.1169 182.085 43.1067 182.105 43.0733C182.127 43.0373 182.11 43.0552 182.14 43.0269C183.03 42.1811 183.351 41.0053 184.032 40.0186C184.609 39.1821 185.391 38.4603 186.355 38.0993C186.696 37.9715 187.037 37.9066 187.394 37.8409C187.104 38.3396 186.971 38.9257 187.059 39.5004C187.156 40.1284 187.44 40.6985 187.674 41.283L188.879 44.1745L190.775 48.6625L191.503 50.3275L191.995 51.4734C192.061 51.6311 192.175 51.8303 192.16 52.005C192.145 52.1879 192.037 52.3512 191.885 52.4527C191.724 52.5605 191.499 52.6344 191.319 52.7095L190.197 53.1791L183.873 55.8131L182.286 56.4727C181.787 56.6823 181.342 56.8266 180.917 57.1752C180.914 56.8457 180.979 56.5191 181.044 56.1976C181.183 55.5117 181.399 54.8463 181.665 54.1994C181.775 53.9329 181.95 53.7045 182.021 53.4224C182.213 52.6581 181.835 51.9254 181.443 51.2958C180.839 50.3244 179.772 49.7114 178.678 49.4734C177.155 49.1424 175.498 49.6878 174.229 50.5242C172.921 51.386 171.735 52.7005 171.408 54.2705C171.33 54.6463 171.272 55.0261 171.284 55.411C171.32 56.5103 171.869 57.6409 172.794 58.2612C172.942 58.3608 173.096 58.4575 173.259 58.5303C173.531 58.6511 173.762 58.7088 174.001 58.8982C174.708 59.4583 175.307 60.2641 175.801 61.0105C175.496 60.9324 175.132 60.8467 174.817 60.8971C174.298 60.9804 173.796 61.2444 173.32 61.4581L171.614 62.2316L169.423 63.1931C169.428 62.8031 169.367 62.4186 169.328 62.0315L169.084 59.6119L168.821 52.6352C168.85 46.5366 170.104 40.4607 172.067 34.7051L173.783 30.1804L177.303 22.1557Z"/>
</mask>
<path d="M177.303 22.1557L177.521 22.0578L180.206 28.4405L180.763 29.7506C180.95 30.2084 181.123 30.7237 181.389 31.1395C181.668 31.5752 182.063 31.9961 182.524 32.2409C182.907 32.444 183.324 32.5442 183.744 32.6371C183.318 32.909 182.864 33.1683 182.376 33.3125C181.75 33.4972 181.116 33.5071 180.478 33.3813C180.142 33.315 179.814 33.1925 179.486 33.0939C178.335 32.7481 177.215 32.5236 176.101 33.1147C174.968 33.7165 174.373 34.8783 174.026 36.0615C173.529 37.751 173.854 39.48 174.666 41.0044C174.74 41.1431 174.847 41.2604 174.919 41.3978L174.968 41.4863C175.145 41.7506 175.383 42.0081 175.605 42.2355C176.424 43.0745 177.406 43.6962 178.56 43.9559C179.514 44.1703 180.592 44.1259 181.434 43.5836L182.029 43.138C182.06 43.1169 182.085 43.1067 182.105 43.0733C182.127 43.0373 182.11 43.0552 182.14 43.0269C183.03 42.1811 183.351 41.0053 184.032 40.0186C184.609 39.1821 185.391 38.4603 186.355 38.0993C186.696 37.9715 187.037 37.9066 187.394 37.8409C187.104 38.3396 186.971 38.9257 187.059 39.5004C187.156 40.1284 187.44 40.6985 187.674 41.283L188.879 44.1745L190.775 48.6625L191.503 50.3275L191.995 51.4734C192.061 51.6311 192.175 51.8303 192.16 52.005C192.145 52.1879 192.037 52.3512 191.885 52.4527C191.724 52.5605 191.499 52.6344 191.319 52.7095L190.197 53.1791L183.873 55.8131L182.286 56.4727C181.787 56.6823 181.342 56.8266 180.917 57.1752C180.914 56.8457 180.979 56.5191 181.044 56.1976C181.183 55.5117 181.399 54.8463 181.665 54.1994C181.775 53.9329 181.95 53.7045 182.021 53.4224C182.213 52.6581 181.835 51.9254 181.443 51.2958C180.839 50.3244 179.772 49.7114 178.678 49.4734C177.155 49.1424 175.498 49.6878 174.229 50.5242C172.921 51.386 171.735 52.7005 171.408 54.2705C171.33 54.6463 171.272 55.0261 171.284 55.411C171.32 56.5103 171.869 57.6409 172.794 58.2612C172.942 58.3608 173.096 58.4575 173.259 58.5303C173.531 58.6511 173.762 58.7088 174.001 58.8982C174.708 59.4583 175.307 60.2641 175.801 61.0105C175.496 60.9324 175.132 60.8467 174.817 60.8971C174.298 60.9804 173.796 61.2444 173.32 61.4581L171.614 62.2316L169.423 63.1931C169.428 62.8031 169.367 62.4186 169.328 62.0315L169.084 59.6119L168.821 52.6352C168.85 46.5366 170.104 40.4607 172.067 34.7051L173.783 30.1804L177.303 22.1557Z" fill="#E4DBDB" stroke="black" stroke-width="1.89698" mask="url(#path-21-inside-21_240_937)"/>
<mask id="path-22-inside-22_240_937" fill="white">
<path d="M169.423 63.1934L165.49 64.9089L163.743 65.6719C163.568 65.7464 163.387 65.8576 163.203 65.9042C163.047 65.9437 162.846 65.9197 162.697 65.863C162.605 65.828 162.49 65.7502 162.415 65.6873C162.349 65.6321 162.3 65.4383 162.27 65.3567L161.852 64.2714L160.051 60.046L158.984 57.714C158.692 57.1007 158.416 56.4512 157.991 55.9153C157.704 55.5532 157.307 55.2242 156.83 55.1835C156.699 55.1724 156.564 55.1763 156.434 55.1897C156.58 55.0939 156.737 54.9786 156.9 54.9128C157.672 54.6013 158.632 54.6374 159.435 54.8011C160.584 55.0351 161.768 55.5699 162.957 55.4583C163.498 55.4076 164.03 55.2018 164.481 54.904C165.554 54.1967 166.052 53.0447 166.289 51.8215C166.63 50.0565 166.394 48.2563 165.377 46.7444C164.751 45.8142 163.819 45.0939 162.807 44.6252C162.464 44.4659 162.085 44.317 161.711 44.2465C160.854 44.0846 159.826 44.0049 159.019 44.4028C158.899 44.4621 158.777 44.5224 158.664 44.5945C158.581 44.6468 158.481 44.7381 158.384 44.7552L158.363 44.7859C158.257 44.9304 158.07 45.0527 157.939 45.18C157.689 45.4241 157.471 45.7288 157.284 46.0226C156.338 47.5012 155.824 49.1954 154.227 50.1364C153.813 50.3802 153.395 50.5613 152.915 50.6222L152.379 50.6796C152.783 50.3795 153.091 50.0753 153.173 49.5503C153.292 48.7817 152.959 47.9353 152.714 47.2224C151.985 45.1039 150.962 43.0889 150.03 41.0549L148.463 37.4552C148.356 37.1921 147.891 36.1592 148.147 35.9655C148.316 35.8381 148.538 35.758 148.73 35.6716L149.791 35.208L151.793 34.3235L159.305 31.0418C159.339 32.0222 159.03 33.0554 158.572 33.9168L158.31 34.3695C158.267 34.44 158.201 34.5275 158.185 34.6092C158.15 34.7836 158.175 35.0071 158.192 35.1837C158.28 36.1198 158.701 36.9666 159.388 37.609C160.349 38.5071 161.739 38.8286 163.022 38.7775C164.727 38.7094 166.333 37.8654 167.474 36.6152C168.414 35.5855 169.111 34.1456 169.042 32.7277C169 31.8527 168.619 30.9607 167.962 30.3689C167.659 30.0958 167.283 29.8322 166.913 29.6596C166.73 29.5742 166.541 29.5192 166.364 29.4177C165.895 29.1498 165.54 28.7728 165.179 28.3788C164.831 27.9983 164.47 27.5832 164.26 27.1074C164.808 27.141 165.404 27.1772 165.941 27.0392C166.242 26.9618 166.561 26.7585 166.848 26.6297L168.901 25.7243L174.14 23.4651L177.303 22.156L173.783 30.1807L172.067 34.7053C170.104 40.461 168.85 46.5368 168.821 52.6355L169.084 59.6122L169.328 62.0317C169.367 62.4189 169.428 62.8034 169.423 63.1934Z"/>
</mask>
<path d="M169.423 63.1934L165.49 64.9089L163.743 65.6719C163.568 65.7464 163.387 65.8576 163.203 65.9042C163.047 65.9437 162.846 65.9197 162.697 65.863C162.605 65.828 162.49 65.7502 162.415 65.6873C162.349 65.6321 162.3 65.4383 162.27 65.3567L161.852 64.2714L160.051 60.046L158.984 57.714C158.692 57.1007 158.416 56.4512 157.991 55.9153C157.704 55.5532 157.307 55.2242 156.83 55.1835C156.699 55.1724 156.564 55.1763 156.434 55.1897C156.58 55.0939 156.737 54.9786 156.9 54.9128C157.672 54.6013 158.632 54.6374 159.435 54.8011C160.584 55.0351 161.768 55.5699 162.957 55.4583C163.498 55.4076 164.03 55.2018 164.481 54.904C165.554 54.1967 166.052 53.0447 166.289 51.8215C166.63 50.0565 166.394 48.2563 165.377 46.7444C164.751 45.8142 163.819 45.0939 162.807 44.6252C162.464 44.4659 162.085 44.317 161.711 44.2465C160.854 44.0846 159.826 44.0049 159.019 44.4028C158.899 44.4621 158.777 44.5224 158.664 44.5945C158.581 44.6468 158.481 44.7381 158.384 44.7552L158.363 44.7859C158.257 44.9304 158.07 45.0527 157.939 45.18C157.689 45.4241 157.471 45.7288 157.284 46.0226C156.338 47.5012 155.824 49.1954 154.227 50.1364C153.813 50.3802 153.395 50.5613 152.915 50.6222L152.379 50.6796C152.783 50.3795 153.091 50.0753 153.173 49.5503C153.292 48.7817 152.959 47.9353 152.714 47.2224C151.985 45.1039 150.962 43.0889 150.03 41.0549L148.463 37.4552C148.356 37.1921 147.891 36.1592 148.147 35.9655C148.316 35.8381 148.538 35.758 148.73 35.6716L149.791 35.208L151.793 34.3235L159.305 31.0418C159.339 32.0222 159.03 33.0554 158.572 33.9168L158.31 34.3695C158.267 34.44 158.201 34.5275 158.185 34.6092C158.15 34.7836 158.175 35.0071 158.192 35.1837C158.28 36.1198 158.701 36.9666 159.388 37.609C160.349 38.5071 161.739 38.8286 163.022 38.7775C164.727 38.7094 166.333 37.8654 167.474 36.6152C168.414 35.5855 169.111 34.1456 169.042 32.7277C169 31.8527 168.619 30.9607 167.962 30.3689C167.659 30.0958 167.283 29.8322 166.913 29.6596C166.73 29.5742 166.541 29.5192 166.364 29.4177C165.895 29.1498 165.54 28.7728 165.179 28.3788C164.831 27.9983 164.47 27.5832 164.26 27.1074C164.808 27.141 165.404 27.1772 165.941 27.0392C166.242 26.9618 166.561 26.7585 166.848 26.6297L168.901 25.7243L174.14 23.4651L177.303 22.156L173.783 30.1807L172.067 34.7053C170.104 40.461 168.85 46.5368 168.821 52.6355L169.084 59.6122L169.328 62.0317C169.367 62.4189 169.428 62.8034 169.423 63.1934Z" fill="#DCB495" stroke="black" stroke-width="1.89698" mask="url(#path-22-inside-22_240_937)"/>
<defs>
<linearGradient id="paint0_linear_240_937" x1="116.891" y1="44.3681" x2="93.7824" y2="103.304" gradientUnits="userSpaceOnUse">
<stop stop-color="#D6CCC2"/>
<stop offset="1" stop-color="white"/>
</linearGradient>
<linearGradient id="paint1_linear_240_937" x1="180.453" y1="69.759" x2="177.319" y2="49.9914" gradientUnits="userSpaceOnUse">
<stop stop-color="#D6CCC2"/>
<stop offset="1" stop-color="white"/>
</linearGradient>
</defs>
</svg>
