<svg width="222" height="62" viewBox="0 0 222 62" fill="none" xmlns="http://www.w3.org/2000/svg">
<path d="M158.838 19.1659L159.591 19.171C159.696 19.171 159.766 19.1219 159.801 19.022C160.756 16.2971 162.269 14.0427 164.379 11.9998C165.684 10.7355 166.981 9.44077 168.272 8.11724C168.337 8.05123 168.414 8.01907 168.506 8.01907L174.721 8.02076C174.817 8.02076 174.829 8.05292 174.76 8.11893L166.058 16.1955C166.015 16.2357 165.988 16.2907 165.984 16.3497C165.979 16.4086 165.996 16.4672 166.033 16.5137L175.694 28.8791C175.699 28.8849 175.702 28.8919 175.703 28.8993C175.704 28.9068 175.703 28.9144 175.7 28.9212C175.696 28.928 175.691 28.9337 175.685 28.9377C175.678 28.9416 175.671 28.9436 175.663 28.9435L168.604 28.9418C168.566 28.9417 168.528 28.9326 168.494 28.9153C168.46 28.8979 168.43 28.8728 168.408 28.8419L162.161 20.2135C162.138 20.1822 162.109 20.1561 162.075 20.1369C162.041 20.1177 162.004 20.1058 161.966 20.1021C161.927 20.0984 161.889 20.103 161.852 20.1155C161.816 20.128 161.782 20.1482 161.754 20.1746L159.745 22.0702C159.68 22.1322 159.627 22.207 159.592 22.2899C159.556 22.3729 159.537 22.4622 159.537 22.5526L159.541 28.847C159.541 28.9113 159.508 28.9435 159.446 28.9435L153.591 28.9418C153.584 28.9418 153.576 28.9402 153.569 28.9373C153.562 28.9343 153.555 28.9299 153.55 28.9244C153.544 28.9189 153.54 28.9124 153.537 28.9052C153.534 28.898 153.532 28.8903 153.532 28.8825V0.0609301C153.532 0.0220026 153.553 0.00169415 153.593 0.00169415L159.446 0C159.492 0 159.514 0.0220041 159.514 0.0677016C159.576 4.27695 159.554 8.2391 159.446 11.9575C159.39 13.8345 159.126 16.1634 158.65 18.9425C158.646 18.9699 158.647 18.9979 158.654 19.0247C158.662 19.0516 158.675 19.0765 158.693 19.0977C158.71 19.119 158.733 19.1361 158.758 19.1479C158.783 19.1596 158.81 19.1658 158.838 19.1659Z" fill="black"/>
<path d="M69.1774 5.92751C68.2144 6.72637 68.0384 8.1413 68.5461 9.21604C69.0623 10.3128 70.6617 10.9746 71.8363 11.2369C73.3816 11.5805 74.9895 11.8767 76.6617 12.1255C79.2343 12.5096 81.817 13.1816 83.8971 14.5762C86.5222 16.3364 86.8979 20.026 86.0923 22.8931C85.1174 26.3678 81.6799 28.5444 78.2543 29.1723C71.4403 30.418 63.1149 28.2668 61.9454 20.3087C61.9369 20.2427 61.964 20.2004 62.0283 20.1818L67.2886 18.7414C67.3597 18.7228 67.4003 18.7482 67.4121 18.821C67.6762 20.461 68.4259 21.8472 69.6615 22.9812C70.4485 23.7038 71.3912 24.1981 72.4879 24.4604C75.2636 25.1239 80.7372 24.7617 80.463 20.5338C80.4173 19.828 80.177 19.2661 79.742 18.8481C79.1276 18.2574 78.3508 17.8461 77.4114 17.6125C75.9948 17.2605 74.5189 16.9897 72.9838 16.7984C70.027 16.4295 66.4068 15.5138 64.2302 13.515C61.8252 11.308 61.8607 7.22905 63.3535 4.69537C64.8666 2.12785 68.0654 0.716301 71.0036 0.306715C73.8013 -0.0842523 76.5449 0.0680749 79.2326 0.763693C80.5273 1.09712 81.7679 1.74026 82.9561 2.69314C84.7027 4.09453 85.6336 6.49281 85.7808 8.6829C85.7818 8.69443 85.7781 8.70596 85.7707 8.71531C85.7632 8.72466 85.7524 8.73119 85.7402 8.73368L80.661 9.72041C80.5612 9.73903 80.5019 9.7001 80.4816 9.60024C80.2142 8.27163 79.417 6.40649 78.1951 5.72441C77.7973 5.5027 77.4504 5.24713 76.9985 5.11511C74.6273 4.4178 71.2101 4.24517 69.1774 5.92751Z" fill="black"/>
<path d="M97.8128 12.0311C97.7586 12.29 97.7316 12.5744 97.7316 12.8841C97.7299 15.8612 97.7468 19.104 97.7806 22.616C97.7925 23.8397 98.395 24.6097 99.5882 24.9262C100.724 25.2292 101.854 25.0532 102.982 24.3982C103.686 23.9903 104.28 23.5198 104.762 22.9883C104.769 22.9812 104.777 22.9758 104.786 22.9726C104.795 22.9695 104.805 22.9688 104.814 22.9705C104.824 22.9721 104.833 22.9762 104.841 22.9823C104.848 22.9884 104.855 22.9963 104.859 23.0053L106.16 26.1228C106.178 26.1668 106.184 26.215 106.175 26.2618C106.167 26.3086 106.145 26.352 106.113 26.3869C103.51 29.193 99.4867 30.1375 95.8275 29.1507C93.7339 28.5854 92.4611 27.2704 92.0092 25.2038C91.8738 24.5877 91.8078 23.8667 91.8129 23.0408C91.8315 19.2344 91.8315 15.6023 91.8163 12.1445C91.8158 12.0878 91.7932 12.0335 91.7532 11.9936C91.7133 11.9536 91.6593 11.9312 91.603 11.9312L89.132 11.9329C89.1153 11.9329 89.0994 11.9261 89.0877 11.9141C89.0759 11.902 89.0693 11.8857 89.0693 11.8686V8.09263C89.0693 8.07333 89.077 8.05482 89.0906 8.04117C89.1043 8.02752 89.1228 8.01985 89.1421 8.01985L92.2546 8.01647C92.3309 8.01641 92.4053 7.99326 92.4682 7.95006C92.531 7.90685 92.5793 7.84562 92.6067 7.77444L94.7561 2.2078C94.7748 2.16041 94.8103 2.13672 94.8611 2.13672H97.6689C97.6882 2.13672 97.7067 2.14457 97.7204 2.15853C97.734 2.1725 97.7417 2.19144 97.7417 2.21119V7.71182C97.7417 7.91661 97.845 8.01816 98.0497 8.01816H105.003C105.062 8.01816 105.091 8.04693 105.091 8.10617L105.065 11.8788C105.065 11.8928 105.059 11.9062 105.049 11.916C105.039 11.9258 105.025 11.9312 105.011 11.9312H97.9347C97.867 11.9312 97.8263 11.9651 97.8128 12.0311Z" fill="black"/>
<path d="M116.07 14.5763C116.417 12.4708 117.179 10.4381 118.804 8.9961C120.466 7.51855 123.048 7.37807 125.027 8.16339C125.338 8.28695 125.568 8.51205 125.868 8.61529C125.929 8.6356 125.953 8.67791 125.939 8.74053L124.727 14.5763C124.715 14.6321 124.688 14.6406 124.646 14.6051C122.009 12.442 118.472 13.2307 116.822 16.2265C115.835 18.0171 115.485 20.0634 115.478 22.1079C115.469 24.689 115.468 26.9975 115.473 29.0336C115.473 29.0484 115.467 29.0626 115.456 29.0731C115.446 29.0836 115.432 29.0895 115.417 29.0895H109.568C109.512 29.0895 109.485 29.0607 109.485 29.0048V8.26325C109.485 8.19894 109.517 8.16678 109.579 8.16678L114.298 8.16847C114.347 8.16847 114.373 8.19216 114.378 8.24125L114.931 14.5915C114.936 14.6396 114.958 14.6842 114.994 14.7167C115.03 14.7493 115.077 14.7674 115.126 14.7675L115.847 14.7658C115.9 14.7654 115.952 14.7462 115.993 14.7116C116.034 14.6769 116.061 14.629 116.07 14.5763Z" fill="black"/>
<path d="M119.997 39.8537C121.755 39.6371 123.507 39.7335 125.255 40.1414C128.615 40.9267 130.92 43.2015 131.274 46.7693C131.28 46.8353 131.252 46.8742 131.187 46.8877L126.349 47.9015C126.276 47.9168 126.235 47.8863 126.225 47.8135C126.115 47.0164 125.9 46.3258 125.578 45.7385C124.808 44.3321 123.116 43.7837 121.555 43.9191C117.058 44.3084 116.642 49.6702 117.173 53.0027C117.529 55.2351 118.697 57.1291 121.053 57.4794C122.996 57.7688 124.527 57.1527 125.65 55.6346C125.971 55.1996 126.215 54.7088 126.382 54.1621C126.39 54.1352 126.408 54.1121 126.432 54.0974C126.457 54.0827 126.486 54.0774 126.514 54.0826L131.275 55.0168C131.343 55.0287 131.37 55.0693 131.357 55.137C130.939 57.2628 129.845 58.9451 128.077 60.1857C125.895 61.714 122.703 62.0204 119.99 61.7648C115.61 61.3518 112.221 58.8859 111.196 54.4735C110.211 50.2338 110.872 44.8957 114.582 42.054C116.172 40.837 117.977 40.1025 119.997 39.8537Z" fill="black"/>
<path d="M210.373 46.917C210.503 46.9491 210.64 46.9593 210.784 46.9474C210.975 46.9322 211.158 46.9948 211.317 46.8425C211.361 46.8007 211.391 46.7462 211.402 46.6868C211.744 44.7742 212.323 43.141 213.602 41.6837C214.283 40.9086 215.087 40.3924 216.016 40.1368C217.889 39.6189 219.617 39.8389 221.2 40.7986C221.249 40.829 221.268 40.873 221.256 40.9306L220.037 46.8019C220.035 46.8101 220.031 46.8178 220.025 46.8239C220.019 46.83 220.012 46.8344 220.004 46.8365C219.995 46.8386 219.987 46.8384 219.979 46.8359C219.971 46.8333 219.964 46.8286 219.959 46.8222C219.824 46.6614 219.663 46.526 219.479 46.4126C217.729 45.3395 215.846 45.2481 214.101 46.2907C211.639 47.7632 210.816 51.3564 210.806 53.9747C210.799 56.3036 210.798 58.7137 210.803 61.2067C210.803 61.215 210.802 61.2233 210.799 61.231C210.795 61.2387 210.791 61.2457 210.785 61.2515C210.779 61.2574 210.772 61.262 210.764 61.2651C210.757 61.2681 210.748 61.2696 210.74 61.2694H204.857C204.84 61.2694 204.825 61.2628 204.813 61.251C204.801 61.2393 204.794 61.2233 204.794 61.2067V40.4211C204.794 40.4014 204.802 40.3824 204.816 40.3685C204.829 40.3545 204.848 40.3467 204.867 40.3467H209.603C209.662 40.3467 209.694 40.3771 209.699 40.4364L210.253 46.7765C210.256 46.8095 210.269 46.8408 210.29 46.866C210.312 46.8911 210.341 46.909 210.373 46.917Z" fill="black"/>
<path d="M167.732 57.3273C168.001 57.373 168.277 57.3459 168.555 57.3476C168.736 57.3476 168.837 57.2579 168.861 57.0768C169.133 54.9815 169.548 52.9674 170.176 50.8145C171.213 47.2586 172.224 43.7991 173.207 40.4378C173.215 40.411 173.231 40.3874 173.253 40.3706C173.276 40.3538 173.303 40.3448 173.331 40.3447H179.475C179.485 40.3446 179.495 40.347 179.504 40.3518C179.514 40.3565 179.522 40.3636 179.528 40.3722C179.534 40.3809 179.537 40.3909 179.539 40.4014C179.54 40.412 179.539 40.4227 179.535 40.4327L171.828 61.2014C171.821 61.2208 171.808 61.2375 171.791 61.2493C171.773 61.2612 171.753 61.2675 171.731 61.2674H164.531C164.462 61.2674 164.416 61.2353 164.393 61.171L156.737 40.426C156.734 40.4167 156.733 40.4068 156.734 40.3971C156.736 40.3874 156.739 40.3782 156.745 40.3702C156.75 40.3622 156.757 40.3557 156.766 40.3513C156.774 40.3469 156.784 40.3446 156.793 40.3447H163.171C163.196 40.3447 163.213 40.3566 163.22 40.382C164.327 44.2358 165.401 48.0135 166.444 51.7183C166.948 53.5107 167.309 55.298 167.597 57.1885C167.608 57.268 167.652 57.3137 167.732 57.3273Z" fill="black"/>
<path fill-rule="evenodd" clip-rule="evenodd" d="M182.868 23.0072C182.416 22.1018 182.151 21.1607 182.069 20.1875C182.054 20.0166 182.132 19.932 182.303 19.932H196.488C196.549 19.932 196.583 19.9015 196.588 19.8406C196.764 18.0211 196.638 16.2355 196.21 14.4872C195.699 12.4037 194.672 10.7265 193.126 9.4537C190.451 7.25006 186.292 7.04696 183.154 7.92029C178.65 9.17612 176.271 12.8539 175.885 17.356C175.733 19.1196 175.841 20.7816 176.208 22.3438C177.322 27.0743 180.94 29.2543 185.574 29.4912C188.838 29.6588 192.052 29.0427 194.318 26.7426C195.306 25.7389 195.982 24.4983 196.344 23.0208C196.346 23.0134 196.346 23.0057 196.344 22.9981C196.343 22.9906 196.34 22.9834 196.336 22.977C196.332 22.9705 196.326 22.9649 196.32 22.9605C196.313 22.9561 196.306 22.953 196.298 22.9514L191.644 22.0036C191.605 21.9959 191.565 22.0019 191.531 22.0204C191.496 22.0389 191.469 22.0689 191.454 22.1051C190.842 23.6132 189.857 24.583 188.501 25.0162C186.438 25.6746 183.918 25.1127 182.868 23.0072ZM181.868 17.2388C181.894 17.2654 181.93 17.2806 181.967 17.281L190.701 17.2979C190.72 17.2982 190.738 17.2947 190.756 17.2876C190.773 17.2806 190.789 17.2701 190.802 17.2569C190.816 17.2437 190.826 17.2279 190.834 17.2106C190.841 17.1932 190.845 17.1746 190.845 17.1558V16.7326C190.846 16.1356 190.731 15.5443 190.508 14.9923C190.285 14.4403 189.957 13.9385 189.543 13.5156C189.13 13.0926 188.638 12.7568 188.097 12.5274C187.556 12.2979 186.976 12.1792 186.39 12.1781H186.299C185.115 12.1759 183.979 12.6527 183.14 13.5037C182.302 14.3547 181.829 15.5101 181.827 16.7157V17.1388C181.827 17.1763 181.842 17.2122 181.868 17.2388Z" fill="black"/>
<path fill-rule="evenodd" clip-rule="evenodd" d="M143.788 8.44955C140.658 7.0617 136.483 7.14125 133.472 8.348C129.271 10.032 127.435 13.7251 127.316 18.085C127.272 19.7267 127.45 21.2296 127.85 22.5938C129.554 28.4143 135.493 30.1711 141.046 29.3215C145.683 28.6106 148.835 25.7097 149.542 20.903C149.781 19.2866 149.781 17.7058 149.546 16.1589C148.984 12.4709 147.064 9.90002 143.788 8.44955ZM141.245 15.611C141.242 15.6012 141.24 15.5907 141.241 15.5803C141.28 14.9829 141.263 14.377 140.945 13.8624C140.224 12.6977 139.224 12.713 138.013 12.7315L137.988 12.7319C136.636 12.7505 135.512 13.6627 135.574 15.1047C135.583 15.2604 135.583 15.4178 135.578 15.5769C135.577 15.5886 135.575 15.6 135.57 15.6105C135.565 15.6211 135.558 15.6305 135.549 15.6383C135.541 15.646 135.531 15.6519 135.52 15.6556C135.509 15.6593 135.498 15.6608 135.486 15.6599C135.188 15.6362 134.892 15.6413 134.596 15.6768C133.447 15.8122 132.673 16.8277 132.672 17.938C132.671 18.0393 132.67 18.1395 132.669 18.2385C132.658 19.3706 132.647 20.3484 133.802 21.0285C134.315 21.3298 134.911 21.3568 135.486 21.3145C135.499 21.3135 135.512 21.3153 135.525 21.3198C135.537 21.3243 135.548 21.3313 135.557 21.3405C135.567 21.3496 135.574 21.3606 135.579 21.3728C135.583 21.385 135.585 21.398 135.585 21.411C135.471 22.8767 136.155 24.1545 137.764 24.2205C137.812 24.2225 137.86 24.2246 137.909 24.2268C138.491 24.2524 139.173 24.2824 139.707 24.1122C140.547 23.8448 141.192 23.0578 141.239 22.1455C141.251 21.8951 141.253 21.6463 141.243 21.3991C141.242 21.3882 141.244 21.3773 141.248 21.3671C141.252 21.3569 141.258 21.3476 141.266 21.34C141.274 21.3323 141.283 21.3264 141.293 21.3226C141.304 21.3188 141.315 21.3172 141.325 21.3179C141.618 21.3348 141.903 21.3314 142.175 21.3061C143.34 21.2028 144.133 20.1839 144.152 19.0584C144.154 18.893 144.157 18.7279 144.159 18.5633C144.161 18.3945 144.163 18.2261 144.165 18.0582C144.179 16.8937 143.421 15.7817 142.185 15.6717C141.882 15.643 141.593 15.6396 141.319 15.6582C141.308 15.6589 141.298 15.6574 141.288 15.6538C141.278 15.6502 141.269 15.6444 141.262 15.6371C141.255 15.6297 141.249 15.6208 141.245 15.611Z" fill="black"/>
<path fill-rule="evenodd" clip-rule="evenodd" d="M28.04 9.36976C22.2973 8.74184 16.2653 10.0721 11.7751 13.7381C11.6854 13.8109 11.6549 13.7906 11.682 13.6806C12.2117 11.4685 13.1528 9.5407 14.5068 7.89898C16.5784 5.38731 19.2136 3.77605 22.4107 3.06689C22.9473 2.94841 23.4855 2.84517 24.0254 2.75716C24.0322 2.75547 24.0355 2.75885 24.0355 2.76562V2.7487C24.0339 2.74362 24.0305 2.74023 24.022 2.74023C18.5248 2.94164 12.9818 4.46828 8.4053 7.42846C5.00337 9.62871 2.19551 12.6871 0.843204 16.4732C-0.388936 19.9191 -0.270461 23.2043 1.19694 26.3269C2.43416 28.9571 4.55486 31.0456 6.9379 32.7398C8.36468 33.7536 9.78807 34.6794 11.2098 35.5172C11.2229 35.525 11.2378 35.5291 11.2531 35.5293C11.2683 35.5294 11.2834 35.5255 11.2966 35.5179C11.3098 35.5103 11.3208 35.4994 11.3285 35.4862C11.3361 35.473 11.3401 35.458 11.3401 35.4427L11.3418 27.3577C11.3419 27.3495 11.3443 27.3414 11.3486 27.3344C11.3529 27.3275 11.359 27.3217 11.3663 27.3179C11.3735 27.3141 11.3817 27.3124 11.3899 27.3128C11.3981 27.3132 11.406 27.3159 11.4129 27.3204C13.6994 28.7963 15.964 30.2366 18.2049 31.6414C21.0043 33.3965 23.9763 35.9285 23.9594 39.5437C23.9458 42.6562 23.9458 45.6841 23.9611 48.6273C23.9763 51.3963 20.7826 52.4608 18.6026 51.5875C17.7394 51.2405 17.1132 50.6312 16.7256 49.7596C16.5784 49.4296 16.5073 48.8253 16.5124 47.9486C16.531 45.481 16.5344 42.8948 16.5242 40.1885C16.5208 39.2881 16.0046 38.5671 15.2532 38.0813C14.0566 37.3062 12.7804 36.5022 11.4264 35.6695C11.3621 35.6306 11.3299 35.6492 11.3299 35.7254C11.3486 37.6125 11.3486 39.5589 11.3282 41.5645C11.3147 42.844 11.3858 43.9306 11.5432 44.8226C12.1085 48.0417 13.6148 50.748 16.0622 52.9432C21.0517 57.4199 28.6527 57.7177 33.9485 53.6253C36.8816 51.359 38.6689 48.4022 39.307 44.7549C39.461 43.868 39.5304 42.7306 39.5135 41.3445C39.4898 39.5792 39.4881 37.6278 39.5084 35.4901C39.5087 35.4803 39.5063 35.4706 39.5015 35.4621C39.4967 35.4535 39.4896 35.4465 39.4811 35.4416C39.4726 35.4367 39.4629 35.4343 39.4531 35.4345C39.4433 35.4347 39.4338 35.4375 39.4255 35.4427C38.1696 36.1993 36.8562 37.0201 35.4853 37.9053C34.2938 38.672 34.0484 39.4438 34.0433 40.8469C34.0365 43.3315 34.0382 45.8889 34.0501 48.519C34.0687 53.0481 26.5878 52.977 26.6234 48.6222C26.6471 45.7348 26.6471 42.8322 26.6234 39.9143C26.6149 39.0258 26.6911 38.2895 26.8519 37.7022C27.2851 36.1248 28.2905 34.8436 29.5362 33.7299C30.3096 33.0411 31.0628 32.4555 31.799 31.9765C33.7607 30.6953 35.8103 29.3802 37.9445 28.0313C38.4404 27.7182 38.9363 27.3729 39.4356 26.9938C39.4416 26.989 39.4489 26.986 39.4565 26.9851C39.4641 26.9843 39.4719 26.9856 39.4788 26.989C39.4857 26.9923 39.4915 26.9976 39.4956 27.0041C39.4996 27.0107 39.5017 27.0182 39.5016 27.0259V35.2769C39.5016 35.3497 39.5321 35.3683 39.5947 35.3293L39.6719 35.2817C41.6329 34.0725 43.5812 32.871 45.3086 31.3909C46.8488 30.0724 48.0775 28.5204 48.9949 26.7365C50.5875 23.6426 50.8921 20.4641 49.9122 17.201C48.8967 13.8177 46.6761 10.9506 43.9004 8.75369C39.8875 5.57687 34.8896 3.65588 29.8476 3.02627C28.9049 2.90779 27.9181 2.81471 26.8857 2.74701C26.8671 2.74531 26.8586 2.75377 26.8569 2.77239C26.8553 2.79101 26.8637 2.80116 26.8823 2.80286C29.5886 3.09227 31.9903 4.06377 34.089 5.71904C36.7818 7.84313 38.4946 10.6019 39.2291 13.9954C39.2477 14.0766 39.2241 14.0901 39.158 14.0377C35.9304 11.3821 32.2239 9.82674 28.04 9.36976ZM18.3367 29.1146C17.8865 23.2111 23.4921 19.6213 28.7355 21.979C31.5179 23.2315 33.092 26.0495 32.7568 29.1146C32.7484 29.2043 32.7755 29.2178 32.8398 29.1552C33.0987 28.9081 33.3949 28.6915 33.6996 28.5053C34.7049 27.8875 35.6781 27.2596 36.6191 26.6198C38.1593 25.5722 39.036 24.2351 38.7026 22.2786C37.9054 17.5853 31.4655 14.2155 27.1665 13.9312C23.9609 13.7196 20.7452 14.2612 17.917 15.7692C15.4443 17.0877 13.0578 19.3268 12.3774 22.0721C11.9255 23.8949 12.7109 25.4165 14.1783 26.476C15.3782 27.3408 16.739 28.2362 18.264 29.1603C18.3164 29.1924 18.3418 29.1772 18.3367 29.1146Z" fill="black"/>
<path fill-rule="evenodd" clip-rule="evenodd" d="M76.9056 47.6111L76.9039 46.9764C76.9039 46.8257 76.9784 46.7377 77.129 46.7157C80.1535 46.2503 82.9478 44.7423 83.6536 41.5485C84.3069 38.5985 83.591 35.4487 80.7594 34.0355C79.3733 33.3433 77.8178 32.9963 76.0898 32.9912C71.4845 32.9811 66.7912 32.9794 62.0099 32.9878C61.9933 32.9878 61.9774 32.9946 61.9656 33.0067C61.9539 33.0187 61.9473 33.0351 61.9473 33.0522V61.1646C61.9473 61.234 61.9828 61.2695 62.0522 61.2695H68.0927C68.1554 61.2695 68.1875 61.2374 68.1875 61.1748V50.3309C68.1875 50.2703 68.2116 50.2122 68.2544 50.1693C68.2973 50.1265 68.3554 50.1024 68.416 50.1024C70.2202 50.094 72.0058 50.1024 73.7728 50.1278C74.3008 50.1363 74.8509 50.2226 75.4213 50.3868C76.3691 50.6626 77.0596 51.6646 77.2982 52.5684C78.0311 55.3373 78.7758 58.2163 79.534 61.2069C79.5442 61.2492 79.5713 61.2695 79.6136 61.2695L86.2617 61.2712C86.3176 61.2712 86.3379 61.2441 86.3227 61.19C85.495 58.3923 84.6674 55.598 83.8398 52.807C83.2575 50.8403 82.3199 49.1208 80.2635 48.3591C79.38 48.0325 78.351 47.8734 77.1764 47.8802C76.9953 47.8819 76.9056 47.7921 76.9056 47.6111ZM77.2763 42.5962C77.691 40.7953 77.3152 38.6865 75.5313 37.869C74.8391 37.5525 74.0453 37.3917 73.15 37.3866C71.6183 37.3816 70.0307 37.3816 68.3873 37.3866C68.3342 37.3871 68.2834 37.4085 68.246 37.4462C68.2086 37.4839 68.1876 37.5349 68.1876 37.588V45.6782C68.1876 45.8119 68.2536 45.8762 68.3856 45.8745C69.5703 45.8593 70.926 45.861 72.4527 45.8796C73.3683 45.8915 74.0876 45.8051 74.614 45.6173C76.0408 45.1112 76.9276 44.1042 77.2763 42.5962Z" fill="black"/>
<path fill-rule="evenodd" clip-rule="evenodd" d="M95.8882 56.7989C94.6053 55.8613 93.9333 54.0266 93.8572 52.4729C93.8558 52.4476 93.8596 52.4223 93.8683 52.3985C93.8771 52.3748 93.8906 52.353 93.908 52.3346C93.9254 52.3163 93.9464 52.3016 93.9697 52.2916C93.993 52.2817 94.018 52.2765 94.0434 52.2766H108.259C108.328 52.2766 108.367 52.241 108.372 52.1716C108.626 49.0083 108.21 45.928 106.388 43.3554C104.148 40.1904 100.187 39.4119 96.4602 39.9332C92.0073 40.5543 88.8457 43.523 87.9233 47.9184C87.5526 49.6837 87.5018 51.5708 87.7743 53.5764C88.1839 56.6094 89.7952 59.2734 92.5235 60.6578C95.1147 61.9746 98.652 62.1218 101.455 61.5413C104.715 60.8677 107.341 58.6624 108.115 55.3942C108.13 55.3281 108.105 55.2892 108.039 55.2757L103.399 54.3346C103.337 54.3211 103.295 54.3448 103.271 54.404C102.909 55.3214 102.355 56.0745 101.609 56.6635C100.091 57.8652 97.4216 57.9228 95.8882 56.7989ZM93.518 48.9296C93.5437 48.9555 93.5785 48.9704 93.6151 48.9708L102.355 48.9877C102.374 48.988 102.392 48.9845 102.409 48.9777C102.426 48.9708 102.441 48.9606 102.454 48.9477C102.467 48.9348 102.478 48.9194 102.485 48.9025C102.492 48.8855 102.496 48.8673 102.496 48.8489V48.4106C102.497 47.8147 102.382 47.2244 102.158 46.6735C101.933 46.1225 101.604 45.6217 101.188 45.1995C100.773 44.7774 100.279 44.4422 99.7358 44.2131C99.1922 43.9841 98.6094 43.8656 98.0206 43.8645H97.9699C96.7808 43.8623 95.6395 44.3382 94.7971 45.1876C93.9548 46.037 93.4802 47.1902 93.478 48.3937V48.832C93.478 48.8685 93.4924 48.9036 93.518 48.9296Z" fill="black"/>
<path fill-rule="evenodd" clip-rule="evenodd" d="M186.511 52.5247C186.504 52.435 186.538 52.3622 186.611 52.308C186.638 52.2877 186.668 52.2776 186.704 52.2776C191.688 52.2725 196.432 52.2725 200.939 52.2759C200.96 52.2759 200.98 52.2681 200.996 52.254C201.011 52.2399 201.021 52.2205 201.022 52.1997C201.246 49.0127 200.892 45.7733 198.897 43.155C197.519 41.3474 195.564 40.2676 193.032 39.9172C189.427 39.4179 185.626 40.2422 183.102 42.9146C181.63 44.4734 180.755 46.5129 180.443 48.6353C180.164 50.536 180.189 52.3588 180.516 54.1021C181.728 60.5793 187.396 62.4359 193.198 61.6997C196.883 61.2326 199.807 59.0645 200.78 55.3748C200.783 55.3648 200.784 55.3544 200.782 55.3442C200.781 55.3339 200.777 55.324 200.771 55.3152C200.766 55.3063 200.759 55.2986 200.75 55.2926C200.741 55.2865 200.731 55.2823 200.721 55.2801L196.013 54.3272C195.999 54.3243 195.985 54.3243 195.971 54.3271C195.958 54.3299 195.945 54.3356 195.933 54.3436C195.922 54.3517 195.912 54.3621 195.905 54.3741C195.898 54.3861 195.893 54.3995 195.891 54.4135C195.869 54.5641 195.818 54.7063 195.74 54.84C194.896 56.2972 193.895 57.2907 192.125 57.5328C190.209 57.7951 188.417 57.2518 187.427 55.5272C186.904 54.6149 186.599 53.6146 186.511 52.5247ZM186.247 48.9553C186.266 48.9635 186.287 48.9678 186.308 48.9681L195.007 48.9816C195.028 48.9818 195.049 48.9779 195.069 48.9701C195.088 48.9624 195.106 48.9508 195.12 48.9362C195.135 48.9216 195.147 48.9042 195.156 48.885C195.164 48.8657 195.168 48.8451 195.168 48.8242V48.3994C195.169 47.8048 195.055 47.2159 194.831 46.6661C194.607 46.1164 194.278 45.6167 193.863 45.1955C193.448 44.7743 192.955 44.4399 192.413 44.2113C191.87 43.9828 191.288 43.8646 190.7 43.8635H190.636C189.448 43.8613 188.309 44.3361 187.468 45.1836C186.627 46.0311 186.153 47.1817 186.151 48.3825V48.8073C186.15 48.8282 186.154 48.8489 186.162 48.8683C186.17 48.8877 186.181 48.9053 186.196 48.9203C186.211 48.9352 186.228 48.9471 186.247 48.9553Z" fill="black"/>
<path fill-rule="evenodd" clip-rule="evenodd" d="M155.62 54.1132C156.285 51.1175 156.135 47.4972 154.585 44.7791C153.76 43.332 152.57 42.1659 151.018 41.2807C147.652 39.3614 142.417 39.2311 138.968 40.9997C136.184 42.4265 134.476 44.7452 133.845 47.9525C133.559 49.4081 133.482 50.8992 133.616 52.4258C133.958 56.327 135.732 59.0604 138.936 60.626C140.74 61.5078 142.971 61.8632 144.956 61.8497C150.14 61.8141 154.424 59.5089 155.62 54.1132ZM141.981 47.9071C141.982 47.9484 141.983 47.9895 141.984 48.0303C141.985 48.1167 141.943 48.1573 141.858 48.1556C141.733 48.1505 141.606 48.1454 141.476 48.1404C140.487 48.0947 139.634 48.6261 139.257 49.5096C138.985 50.146 139.017 51.2275 139.111 51.896C139.267 52.986 140.201 53.8712 141.391 53.8187C141.557 53.8119 141.723 53.8102 141.889 53.8153C141.906 53.8158 141.922 53.8199 141.937 53.8272C141.952 53.8345 141.965 53.8449 141.976 53.8576C141.987 53.8704 141.994 53.8853 141.999 53.9014C142.004 53.9174 142.005 53.9342 142.002 53.9507C141.804 55.3622 142.605 56.5673 144.037 56.701C144.763 56.7687 145.79 56.8161 146.442 56.4708C147.109 56.1171 147.505 55.5552 147.63 54.7834C147.664 54.58 147.658 54.366 147.652 54.1541C147.649 54.0716 147.647 53.9895 147.647 53.9084C147.647 53.8815 147.658 53.8558 147.677 53.8371C147.696 53.8184 147.722 53.8081 147.748 53.8085L148.28 53.8187C149.26 53.8373 150.103 53.2179 150.416 52.3428C150.636 51.7301 150.631 50.5369 150.495 49.9056C150.301 49.0069 149.723 48.4348 148.767 48.1877C148.551 48.1315 148.298 48.1369 148.053 48.1422C147.944 48.1445 147.837 48.1469 147.735 48.1437C147.71 48.1429 147.687 48.1323 147.67 48.1142C147.654 48.0962 147.645 48.0721 147.645 48.0473L147.646 48.0216C147.661 47.6236 147.678 47.181 147.549 46.8016C147.175 45.7048 146.31 45.2428 145.184 45.2208C143.823 45.1937 142.678 45.2783 142.102 46.7559C141.961 47.1137 141.971 47.52 141.981 47.9071Z" fill="black"/>
</svg>
